<?xml version="1.0" standalone="no"?>
<!DOCTYPE svg PUBLIC "-//W3C//DTD SVG 20010904//EN"
 "http://www.w3.org/TR/2001/REC-SVG-20010904/DTD/svg10.dtd">
<svg version="1.0" xmlns="http://www.w3.org/2000/svg"
 width="841.000000pt" height="296.000000pt" viewBox="0 0 841.000000 296.000000"
 preserveAspectRatio="xMidYMid meet">

<g transform="translate(0.000000,296.000000) scale(0.100000,-0.100000)"
fill="#000000" stroke="none">
<path d="M7065 2350 c10 -11 20 -20 23 -20 3 0 -3 9 -13 20 -10 11 -20 20 -23
20 -3 0 3 -9 13 -20z"/>
<path d="M7005 2300 c10 -11 20 -20 23 -20 3 0 -3 9 -13 20 -10 11 -20 20 -23
20 -3 0 3 -9 13 -20z"/>
<path d="M7127 2259 c7 -7 15 -10 18 -7 3 3 -2 9 -12 12 -14 6 -15 5 -6 -5z"/>
<path d="M530 2081 c-126 -41 -203 -164 -170 -267 23 -70 63 -109 171 -164 55
-29 109 -60 120 -71 26 -26 24 -55 -6 -84 -44 -45 -155 -29 -245 35 l-29 21
-42 -72 c-42 -69 -42 -72 -23 -86 75 -56 190 -88 294 -80 160 11 249 92 250
225 0 101 -52 162 -195 227 -104 48 -135 71 -135 101 0 64 93 85 191 43 27
-12 51 -20 53 -18 2 2 18 32 35 66 l31 63 -23 14 c-62 41 -217 67 -277 47z"/>
<path d="M1056 2068 c-4 -13 -66 -710 -66 -735 0 -10 24 -13 85 -13 72 0 85 2
85 17 0 39 32 418 36 422 7 7 8 3 84 -216 l74 -213 52 0 52 0 72 208 c76 222
89 253 90 212 0 -14 7 -104 15 -200 8 -96 15 -187 15 -202 l0 -28 85 0 c74 0
85 2 85 18 0 32 -61 717 -65 730 -6 16 -171 17 -181 0 -4 -6 -42 -101 -84
-210 -42 -110 -80 -200 -84 -201 -4 -1 -41 84 -81 189 -40 105 -78 201 -84
213 -11 19 -20 21 -97 21 -59 0 -86 -4 -88 -12z"/>
<path d="M2061 1706 c-83 -206 -151 -377 -151 -380 0 -4 40 -6 89 -6 l89 0 27
75 28 75 147 0 147 0 28 -75 27 -75 89 0 c49 0 89 2 89 6 0 3 -66 168 -146
367 -81 199 -149 368 -151 375 -4 8 -30 12 -83 12 l-77 0 -152 -374z m272 31
c21 -56 37 -105 37 -109 0 -5 -36 -8 -80 -8 -44 0 -80 3 -80 8 -1 12 75 212
80 212 3 0 22 -46 43 -103z"/>
<path d="M2800 1701 l0 -381 85 0 84 0 3 148 3 147 114 -147 115 -148 103 0
c57 0 103 3 103 8 0 4 -57 74 -125 155 l-125 149 42 22 c24 12 56 42 73 65 24
34 30 54 33 112 7 118 -26 177 -123 220 -43 20 -72 23 -217 27 l-168 5 0 -382z
m276 229 c39 -15 53 -39 54 -91 0 -62 -28 -88 -104 -96 l-56 -6 0 102 0 101
39 0 c22 0 52 -5 67 -10z"/>
<path d="M3500 2006 l0 -75 88 -3 87 -3 3 -302 2 -303 85 0 85 0 0 305 0 305
90 0 91 0 -3 73 -3 72 -262 3 -263 2 0 -74z"/>
<path d="M6465 1841 c-3 -5 -2 -12 3 -15 5 -3 9 1 9 9 0 17 -3 19 -12 6z"/>
<path d="M4646 1782 c-3 -5 1 -9 9 -9 8 0 12 4 9 9 -3 4 -7 8 -9 8 -2 0 -6 -4
-9 -8z"/>
<path d="M5095 1719 c-4 -6 -5 -12 -2 -15 2 -3 7 2 10 11 7 17 1 20 -8 4z"/>
<path d="M6536 1512 c-3 -5 1 -9 9 -9 8 0 12 4 9 9 -3 4 -7 8 -9 8 -2 0 -6 -4
-9 -8z"/>
<path d="M5288 1503 c7 -3 16 -2 19 1 4 3 -2 6 -13 5 -11 0 -14 -3 -6 -6z"/>
<path d="M7183 1485 c0 -8 4 -12 9 -9 5 3 6 10 3 15 -9 13 -12 11 -12 -6z"/>
<path d="M7338 1231 c11 -7 11 -9 -2 -14 -9 -4 -16 -11 -16 -17 0 -5 9 -2 19
7 20 17 19 33 -2 33 -8 0 -8 -3 1 -9z"/>
<path d="M7436 1138 c3 -5 10 -6 15 -3 13 9 11 12 -6 12 -8 0 -12 -4 -9 -9z"/>
<path d="M1933 1064 c-56 -28 -78 -76 -78 -169 0 -99 23 -144 87 -170 80 -32
177 7 194 78 6 26 4 27 -30 27 -20 0 -36 -4 -36 -10 0 -5 -9 -19 -20 -30 -23
-23 -68 -26 -94 -7 -40 29 -44 179 -5 218 12 12 33 19 54 19 29 0 39 -6 53
-30 14 -24 24 -30 51 -30 31 0 33 2 26 28 -19 76 -122 115 -202 76z"/>
<path d="M2321 1062 c-47 -24 -72 -61 -82 -123 -18 -113 33 -209 120 -224 103
-17 181 61 181 180 0 139 -110 223 -219 167z m118 -68 c45 -57 34 -183 -20
-213 -36 -20 -75 -7 -95 31 -12 23 -15 50 -12 101 3 58 8 73 27 88 33 27 75
24 100 -7z"/>
<path d="M2655 1072 c-3 -3 -5 -83 -5 -179 l0 -173 35 0 35 0 0 113 c1 130 -4
131 87 -20 55 -92 56 -93 94 -93 l39 0 -2 178 -3 177 -30 0 -30 0 -3 -112 c-1
-62 -6 -113 -10 -113 -6 1 -41 57 -133 212 -7 11 -65 19 -74 10z"/>
<path d="M3110 1063 c-42 -22 -62 -58 -55 -97 7 -41 28 -61 88 -86 87 -35 97
-42 97 -65 0 -30 -19 -45 -57 -45 -32 0 -73 28 -73 50 0 6 -16 10 -36 10 -34
0 -36 -1 -29 -27 9 -39 31 -60 81 -79 76 -29 162 -2 182 56 22 61 -12 110 -99
141 -65 24 -93 48 -83 73 13 35 93 34 109 -1 7 -17 18 -23 42 -23 28 0 33 4
33 23 0 13 -13 36 -30 52 -38 37 -117 45 -170 18z"/>
<path d="M3420 939 c0 -167 8 -189 75 -214 73 -29 151 -5 182 56 8 16 13 72
13 162 l0 138 -32 -3 -33 -3 -5 -138 c-4 -122 -7 -140 -24 -153 -27 -19 -70
-18 -89 4 -13 14 -17 45 -19 152 l-3 135 -32 2 -33 3 0 -141z"/>
<path d="M3806 1072 c-3 -3 -6 -83 -6 -179 l0 -173 119 0 118 0 -5 25 c-4 24
-7 25 -78 25 l-73 0 -3 152 -3 152 -32 2 c-17 1 -34 0 -37 -4z"/>
<path d="M4116 1073 c-3 -4 -6 -17 -6 -29 0 -21 5 -23 53 -26 l52 -3 3 -147 3
-148 34 0 35 0 0 150 0 150 56 0 c54 0 55 0 52 28 l-3 27 -137 2 c-75 1 -139
-1 -142 -4z"/>
<path d="M4504 1071 c-2 -2 -4 -82 -4 -178 l0 -173 35 0 35 0 0 180 0 179 -31
-2 c-17 -1 -32 -4 -35 -6z"/>
<path d="M4695 1072 c-3 -3 -5 -83 -5 -179 l0 -173 40 0 39 0 3 112 3 111 68
-111 68 -112 40 0 39 0 -2 178 -3 177 -35 0 -35 0 -5 -114 -5 -113 -64 106
c-35 58 -69 110 -75 115 -12 10 -62 12 -71 3z"/>
<path d="M5169 1057 c-49 -32 -69 -79 -69 -160 0 -82 17 -126 61 -158 45 -32
137 -34 189 -3 34 20 35 21 38 92 l3 72 -71 0 c-68 0 -70 -1 -70 -25 0 -22 4
-25 35 -25 32 0 35 -2 35 -30 0 -50 -75 -69 -118 -30 -39 36 -43 170 -7 210
31 34 100 25 116 -16 7 -19 16 -24 44 -24 33 0 36 2 30 23 -27 88 -137 127
-216 74z"/>
<path d="M7390 1073 c0 -6 8 -17 18 -24 16 -13 16 -13 2 6 -8 11 -16 22 -17
24 -2 2 -3 0 -3 -6z"/>
<path d="M6885 1021 c-3 -5 -2 -12 3 -15 5 -3 9 1 9 9 0 17 -3 19 -12 6z"/>
<path d="M6596 858 c3 -5 10 -6 15 -3 13 9 11 12 -6 12 -8 0 -12 -4 -9 -9z"/>
<path d="M7247 739 c7 -7 15 -10 18 -7 3 3 -2 9 -12 12 -14 6 -15 5 -6 -5z"/>
<path d="M7705 390 c-4 -6 -11 -7 -17 -4 -7 4 -8 2 -4 -5 6 -9 11 -9 22 0 14
11 18 19 10 19 -3 0 -8 -5 -11 -10z"/>
<path d="M7823 305 c0 -8 4 -12 9 -9 5 3 6 10 3 15 -9 13 -12 11 -12 -6z"/>
</g>
</svg>
