<?xml version="1.0" encoding="UTF-8"?>
<svg version="1.1" xmlns="http://www.w3.org/2000/svg" width="664" height="571">
<path d="M0 0 C219.12 0 438.24 0 664 0 C664 188.43 664 376.86 664 571 C444.88 571 225.76 571 0 571 C0 382.57 0 194.14 0 0 Z " fill="#F0F0FD" transform="translate(0,0)"/>
<path d="M0 0 C1.17528611 -0.00573832 1.17528611 -0.00573832 2.37431538 -0.01159257 C4.99042675 -0.02188193 7.60631697 -0.01793817 10.22244263 -0.01396179 C12.10195112 -0.01831053 13.98145783 -0.02349422 15.86096191 -0.02944946 C20.96017469 -0.04283368 26.05931333 -0.04341874 31.15854025 -0.04088616 C35.41794592 -0.039816 39.67733662 -0.04470102 43.93673909 -0.04949158 C53.98706313 -0.06058491 64.0373498 -0.06102524 74.087677 -0.05497742 C84.44983118 -0.04893774 94.81184958 -0.06124892 105.17398059 -0.08254749 C114.07607255 -0.10017109 122.97812131 -0.10616362 131.88023007 -0.10290974 C137.19458338 -0.10109786 142.50883984 -0.1037236 147.82317734 -0.11762428 C152.82187814 -0.13021019 157.8203675 -0.12825122 162.81906509 -0.11521339 C164.6508008 -0.11284969 166.48255142 -0.11557491 168.31427002 -0.12383652 C170.82059715 -0.13432329 173.32621734 -0.12618812 175.83251953 -0.11352539 C176.55218615 -0.12089968 177.27185278 -0.12827396 178.01332748 -0.13587171 C186.10959135 -0.0501997 192.31742985 2.53488285 198.04324341 8.26069641 C202.77649038 14.99007309 203.71066026 21.20315474 203.04324341 29.26069641 C201.65429936 35.47266662 198.60536564 40.7552037 193.30496216 44.48335266 C187.52762382 47.93491025 182.93286291 48.40897972 176.32699585 48.40113831 C175.15427301 48.40559499 175.15427301 48.40559499 173.9578588 48.41014171 C171.33559336 48.41881993 168.71337363 48.42033622 166.09109497 48.42182922 C164.21188255 48.42645803 162.33267108 48.43148277 160.45346069 48.43687439 C155.34588564 48.44999465 150.23832372 48.45644266 145.13073444 48.46088505 C141.9392536 48.46381646 138.74777634 48.46792141 135.5562973 48.47238922 C125.56955617 48.48606336 115.58282324 48.49573035 105.59607339 48.49959111 C94.0703985 48.50407136 82.54484224 48.52161809 71.01920342 48.55059171 C62.10866562 48.57221331 53.19816118 48.58229566 44.28759742 48.58363223 C38.96649856 48.58467994 33.64551123 48.59058059 28.32444 48.60845184 C23.31757024 48.62494065 18.31089574 48.62708404 13.30400848 48.61831284 C11.46904477 48.61754289 9.63407052 48.62187957 7.7991333 48.63177109 C5.28833278 48.64450931 2.77822187 48.63860383 0.26742554 48.62818909 C-0.81412076 48.64027369 -0.81412076 48.64027369 -1.91751647 48.65260243 C-10.01950787 48.5743481 -16.2270974 45.9903556 -21.95675659 40.26069641 C-26.69979928 33.51739291 -27.60076876 27.32907523 -26.95675659 19.26069641 C-25.83592515 13.42003348 -23.35581318 10.16699192 -18.67550659 6.58491516 C-16.92411363 5.32527115 -16.92411363 5.32527115 -15.61300659 3.71772766 C-11.2444082 -0.12540253 -5.52669032 -0.02884455 0 0 Z " fill="#FCFBFF" transform="translate(263.9567565917969,392.7393035888672)"/>
<path d="M0 0 C1.12280869 -0.00708481 2.24561737 -0.01416962 3.40245056 -0.02146912 C5.2361319 -0.01775299 5.2361319 -0.01775299 7.1068573 -0.01396179 C9.04914467 -0.02162819 9.04914467 -0.02162819 11.03067017 -0.02944946 C14.57628151 -0.04282188 18.12178613 -0.04341993 21.66741776 -0.04088616 C24.63191986 -0.03981491 27.59640051 -0.04470396 30.56089801 -0.04949158 C37.55865603 -0.06058145 44.55636037 -0.06102761 51.55412292 -0.05497742 C58.7608327 -0.04894207 65.96734702 -0.06123857 73.17402345 -0.08254749 C79.37123823 -0.10019438 85.56839098 -0.10615985 91.76562995 -0.10290974 C95.46251883 -0.1011011 99.15926839 -0.10369069 102.85613441 -0.11762428 C106.98280533 -0.13259594 111.10908173 -0.12320558 115.23576355 -0.11161804 C116.45214508 -0.11926178 117.66852661 -0.12690552 118.92176819 -0.13478088 C128.58374534 -0.07487278 135.42455386 1.5434578 142.59977722 8.32319641 C147.90745087 14.14754626 148.99192811 19.55867749 148.67790222 27.37007141 C147.84261391 35.09648832 144.47181206 41.33416915 138.36540222 46.26069641 C131.12796399 50.61310715 124.35818524 50.83334462 116.07804871 50.77827454 C114.77285278 50.78528381 113.46765686 50.79229309 112.12290955 50.79951477 C108.56708012 50.81763702 105.01171868 50.81072767 101.45588183 50.79799843 C97.72136927 50.78781483 93.98689464 50.7972787 90.25238037 50.80354309 C83.98407352 50.8108031 77.71595571 50.80127434 71.44767761 50.78218079 C64.21581303 50.76040554 56.98439948 50.7674745 49.75254577 50.78948641 C43.52550014 50.80767624 37.29858975 50.81018159 31.07152611 50.79973173 C27.36014389 50.79351761 23.64897326 50.79260355 19.9376049 50.80587769 C15.79925472 50.8196475 11.66167445 50.80052835 7.52336121 50.77827454 C6.30391312 50.78637146 5.08446503 50.79446838 3.82806396 50.80281067 C-4.61500293 50.71882468 -9.98432701 49.50538154 -16.44709778 43.76069641 C-22.62067019 36.70518508 -24.13787971 30.83392692 -23.93537903 21.44429016 C-23.16899629 13.33257672 -18.91779308 9.13402518 -12.95100403 3.92475891 C-8.75172875 0.90807886 -5.13274954 0.01082745 0 0 Z " fill="#641DFE" transform="translate(71.63459777832031,391.7393035888672)"/>
<path d="M0 0 C1.98 0 3.96 0 6 0 C6 12.54 6 25.08 6 38 C4.35 38 2.7 38 1 38 C1 37.34 1 36.68 1 36 C0.01 36.495 0.01 36.495 -1 37 C-4.77478414 38.25826138 -8.06603277 38.79474085 -12 38 C-15.21954645 35.46546343 -16.70432435 33.88702695 -18 30 C-19.01913064 19.09530217 -19.01913064 19.09530217 -16.953125 14.84765625 C-15.20740848 12.74766197 -13.4460543 11.22302715 -11 10 C-8.90625 10.0859375 -8.90625 10.0859375 -6.5 10.375 C-5.30890625 10.51035156 -5.30890625 10.51035156 -4.09375 10.6484375 C-2 11 -2 11 0 12 C0 8.04 0 4.08 0 0 Z " fill="#202537" transform="translate(452,165)"/>
<path d="M0 0 C1.65 0 3.3 0 5 0 C5 12.54 5 25.08 5 38 C3.68 38 2.36 38 1 38 C1 37.34 1 36.68 1 36 C0.01 36.495 0.01 36.495 -1 37 C-4.78497379 38.26165793 -8.04948942 38.64775578 -12 38 C-14.96867287 36.2575181 -16.51376756 34.78723348 -18.3125 31.875 C-19.69985846 26.07331918 -19.99042424 20.94547618 -17.25 15.5625 C-16.5075 14.716875 -15.765 13.87125 -15 13 C-14.1646875 12.0409375 -14.1646875 12.0409375 -13.3125 11.0625 C-9.59259439 9.35335418 -5.9268965 10.18126482 -2 11 C-1.34 11.33 -0.68 11.66 0 12 C0 8.04 0 4.08 0 0 Z " fill="#6922FF" transform="translate(137,218)"/>
<path d="M0 0 C4.3604287 2.22135047 7.20212362 4.40542702 9 9 C9.68426057 14.04325384 9.5739862 17.83076884 7.3125 22.4375 C4.4887776 25.56648969 2.36278251 27.65422695 -1.921875 28.28125 C-6.41340304 28.48387533 -9.43631651 27.95276632 -13 25 C-15.70625031 21.24532342 -16.41026534 18.60800472 -16.375 14 C-16.38273438 12.989375 -16.39046875 11.97875 -16.3984375 10.9375 C-15.81093509 6.60610971 -14.1546633 3.95672102 -10.8125 1.1875 C-7.13998514 -0.36311739 -3.88989939 -0.68645283 0 0 Z " fill="#6B29FF" transform="translate(261,228)"/>
<path d="M0 0 C4.3604287 2.22135047 7.20212362 4.40542702 9 9 C9.68426057 14.04325384 9.5739862 17.83076884 7.3125 22.4375 C4.4887776 25.56648969 2.36278251 27.65422695 -1.921875 28.28125 C-6.39638862 28.48310776 -9.49302023 28.00598266 -13 25 C-16.55307655 19.97668487 -16.70472884 14.93709915 -16 9 C-14.75078112 5.38384007 -13.6996645 3.59971243 -10.8125 1.125 C-7.13503218 -0.34598713 -3.86965904 -0.68288101 0 0 Z " fill="#1D2235" transform="translate(207,175)"/>
<path d="M0 0 C3.9530795 2.08841936 6.63291426 4.2208487 9 8 C9.9878621 13.86906308 9.30234816 18.98532316 6 24 C3.13571921 27.46100596 0.67374799 27.93372971 -3.8125 28.375 C-7.06504073 28.33906032 -8.83212381 27.78680009 -11.375 25.75 C-15.93258685 20.97538521 -16.54785682 17.26240467 -16.4609375 10.76953125 C-15.72897489 6.37155249 -13.37436891 3.7799205 -10 1 C-6.78548618 -0.60725691 -3.48666924 -0.47397924 0 0 Z " fill="#202436" transform="translate(479,175)"/>
<path d="M0 0 C3.32726208 2.85193892 4.43906 4.69761724 4.9609375 9.0546875 C5.09424257 19.53246617 5.09424257 19.53246617 0.625 24.25 C-3.58371053 26.79110824 -7.57474094 26.95289508 -12.375 26.25 C-15.97643342 24.10446519 -17.84790622 22.1110799 -19.375 18.25 C-19.7109375 15.19140625 -19.7109375 15.19140625 -19.75 11.8125 C-19.77835937 10.70003906 -19.80671875 9.58757812 -19.8359375 8.44140625 C-19.19845945 4.02768109 -17.14810378 1.57982784 -13.625 -1.0625 C-8.45422388 -2.64245937 -4.70125936 -2.43769004 0 0 Z " fill="#1C2032" transform="translate(389.375,176.75)"/>
<path d="M0 0 C1.051875 0.37125 2.10375 0.7425 3.1875 1.125 C5.89092254 2.30730915 5.89092254 2.30730915 7.9375 1.125 C8.618125 0.75375 9.29875 0.3825 10 0 C14.23244524 -0.4617213 16.27106961 -0.47538938 19.875 1.875 C22.15806998 4.15806998 22.95184891 5.04712626 23.11352539 8.24658203 C23.10828857 9.15778809 23.10305176 10.06899414 23.09765625 11.0078125 C23.09443359 11.99394531 23.09121094 12.98007813 23.08789062 13.99609375 C23.07532227 15.54490234 23.07532227 15.54490234 23.0625 17.125 C23.05798828 18.16527344 23.05347656 19.20554688 23.04882812 20.27734375 C23.03701952 22.85161962 23.02055075 25.42578146 23 28 C21.02 28 19.04 28 17 28 C16.97494385 27.36908447 16.9498877 26.73816895 16.92407227 26.08813477 C16.80845863 23.24603175 16.68557684 20.40428917 16.5625 17.5625 C16.52318359 16.56927734 16.48386719 15.57605469 16.44335938 14.55273438 C16.40146484 13.60849609 16.35957031 12.66425781 16.31640625 11.69140625 C16.27974854 10.81685791 16.24309082 9.94230957 16.20532227 9.04125977 C16.21818934 7.0072598 16.21818934 7.0072598 15 6 C12.04195427 5.66659529 12.04195427 5.66659529 9 6 C6.94872156 9.07691766 6.72739128 9.93644999 6.5859375 13.44921875 C6.54726563 14.29677734 6.50859375 15.14433594 6.46875 16.01757812 C6.42234375 17.33918945 6.42234375 17.33918945 6.375 18.6875 C6.33632813 19.58017578 6.29765625 20.47285156 6.2578125 21.39257812 C6.16359782 23.5948462 6.07798412 25.79710722 6 28 C4.35 28 2.7 28 1 28 C0.97494385 27.36908447 0.9498877 26.73816895 0.92407227 26.08813477 C0.80845863 23.24603175 0.68557684 20.40428917 0.5625 17.5625 C0.52318359 16.56927734 0.48386719 15.57605469 0.44335938 14.55273438 C0.38051758 13.13637695 0.38051758 13.13637695 0.31640625 11.69140625 C0.27974854 10.81685791 0.24309082 9.94230957 0.20532227 9.04125977 C0.21818934 7.0072598 0.21818934 7.0072598 -1 6 C-3.95817107 5.74994614 -3.95817107 5.74994614 -7 6 C-9.43914492 8.43914492 -9.28662523 9.21446431 -9.4140625 12.5703125 C-9.45273438 13.46621094 -9.49140625 14.36210937 -9.53125 15.28515625 C-9.5621875 16.22230469 -9.593125 17.15945312 -9.625 18.125 C-9.66367188 19.06988281 -9.70234375 20.01476562 -9.7421875 20.98828125 C-9.83661346 23.32532375 -9.92218394 25.66235501 -10 28 C-11.65 28 -13.3 28 -15 28 C-15 19.09 -15 10.18 -15 1 C-12.525 1.495 -12.525 1.495 -10 2 C-6.26935156 -0.48709896 -4.42368032 -0.29991053 0 0 Z " fill="#1D2236" transform="translate(256,175)"/>
<path d="M0 0 C2.87029869 1.79393668 4.49131638 2.98263276 6 6 C6.08426094 7.6674606 6.10725143 9.33825187 6.09765625 11.0078125 C6.09443359 11.99394531 6.09121094 12.98007813 6.08789062 13.99609375 C6.07951172 15.02863281 6.07113281 16.06117188 6.0625 17.125 C6.05798828 18.16527344 6.05347656 19.20554688 6.04882812 20.27734375 C6.03701952 22.85161962 6.02055075 25.42578146 6 28 C4.35 28 2.7 28 1 28 C1 27.34 1 26.68 1 26 C0.505 26.33 0.01 26.66 -0.5 27 C-4.02520233 28.41008093 -7.29800722 28.70374516 -11 28 C-14 25.9375 -14 25.9375 -16 23 C-16.625 19.4375 -16.625 19.4375 -16 16 C-13.30514449 13.1554303 -10.90487282 11.44627118 -7 11 C-4.3272425 10.93305232 -1.67485877 10.95541902 1 11 C0.34 9.35 -0.32 7.7 -1 6 C-2.8871875 5.9690625 -2.8871875 5.9690625 -4.8125 5.9375 C-5.52019531 5.92589844 -6.22789063 5.91429687 -6.95703125 5.90234375 C-9.20305461 5.91736783 -9.20305461 5.91736783 -12 7 C-12.33 5.35 -12.66 3.7 -13 2 C-8.69321224 -0.44148966 -4.86389189 -0.72828328 0 0 Z " fill="#1F2335" transform="translate(111,175)"/>
<path d="M0 0 C4.54054054 2.08108108 4.54054054 2.08108108 6 5 C6.08449628 6.7404417 6.10723024 8.48409722 6.09765625 10.2265625 C6.09443359 11.2578125 6.09121094 12.2890625 6.08789062 13.3515625 C6.07951172 14.43179688 6.07113281 15.51203125 6.0625 16.625 C6.05798828 17.71296875 6.05347656 18.8009375 6.04882812 19.921875 C6.03701776 22.61463789 6.02054778 25.30729188 6 28 C4.68 28 3.36 28 2 28 C2 27.01 2 26.02 2 25 C1.34 25.495 0.68 25.99 0 26.5 C-3.80800871 28.40400436 -6.81890189 28.89354113 -11 28 C-14.44150865 25.56226471 -15.762119 24.14182881 -16.625 20 C-15.79456673 16.01392031 -14.11743323 14.53744565 -11 12 C-8.11788698 11.03929566 -6.30149956 10.89418117 -3.3125 10.9375 C-2.10013672 10.95103516 -2.10013672 10.95103516 -0.86328125 10.96484375 C0.05904297 10.98224609 0.05904297 10.98224609 1 11 C0.34 9.35 -0.32 7.7 -1 6 C-2.8871875 5.9690625 -2.8871875 5.9690625 -4.8125 5.9375 C-5.52019531 5.92589844 -6.22789062 5.91429687 -6.95703125 5.90234375 C-9.20305461 5.91736783 -9.20305461 5.91736783 -12 7 C-12.33 5.35 -12.66 3.7 -13 2 C-8.67466925 -0.46180956 -4.88171178 -0.58302084 0 0 Z " fill="#6A26FF" transform="translate(416,228)"/>
<path d="M0 0 C3.10352458 1.60923497 5.21701424 3.00347267 7.375 5.75 C8 8 8 8 8 16 C2.06 16 -3.88 16 -10 16 C-9.34 17.98 -8.68 19.96 -8 22 C-3.05 22 1.9 22 7 22 C6.67 23.65 6.34 25.3 6 27 C1.82437724 29.08781138 -3.45183942 28.44327867 -8 28 C-11.72439512 25.91433873 -13.43487158 23.9060748 -15 20 C-15.3359375 16.94140625 -15.3359375 16.94140625 -15.375 13.5625 C-15.40335938 12.45003906 -15.43171875 11.33757812 -15.4609375 10.19140625 C-14.90311109 6.32916747 -13.70028243 4.76364646 -11 2 C-7.29137017 -0.47241989 -4.30094385 -0.66668695 0 0 Z " fill="#1E2537" transform="translate(65,228)"/>
<path d="M0 0 C3.10352458 1.60923497 5.21701424 3.00347267 7.375 5.75 C8 8 8 8 8 16 C2.06 16 -3.88 16 -10 16 C-9.34 17.98 -8.68 19.96 -8 22 C-3.05 22 1.9 22 7 22 C6.67 23.65 6.34 25.3 6 27 C1.82437724 29.08781138 -3.45183942 28.44327867 -8 28 C-11.72439512 25.91433873 -13.43487158 23.9060748 -15 20 C-15.3359375 16.94140625 -15.3359375 16.94140625 -15.375 13.5625 C-15.40335937 12.45003906 -15.43171875 11.33757812 -15.4609375 10.19140625 C-14.90311109 6.32916747 -13.70028243 4.76364646 -11 2 C-7.29137017 -0.47241989 -4.30094385 -0.66668695 0 0 Z " fill="#1E2537" transform="translate(299,175)"/>
<path d="M0 0 C2.6875 2.1875 2.6875 2.1875 4.6875 5.1875 C4.9485788 8.21079256 4.77565181 11.14626242 4.6875 14.1875 C-0.9225 14.1875 -6.5325 14.1875 -12.3125 14.1875 C-10.85961014 18.7716963 -10.85961014 18.7716963 -9.3125 20.1875 C-7.12610547 20.26008946 -4.93749611 20.27123783 -2.75 20.25 C-1.55246094 20.24097656 -0.35492187 20.23195312 0.87890625 20.22265625 C2.26916016 20.20525391 2.26916016 20.20525391 3.6875 20.1875 C3.3125 22.625 3.3125 22.625 2.6875 25.1875 C-1.2405059 27.15150295 -6.02037038 26.52291968 -10.3125 26.1875 C-13.83164085 24.86782218 -14.93533773 23.70772382 -17.125 20.6875 C-19.24024713 14.45308742 -19.49066938 8.58591624 -16.5625 2.625 C-11.73643184 -2.60324051 -6.4290987 -3.51780872 0 0 Z " fill="#1D2436" transform="translate(596.3125,176.8125)"/>
<path d="M0 0 C2.6875 2.1875 2.6875 2.1875 4.6875 5.1875 C4.9485788 8.21079256 4.77565181 11.14626242 4.6875 14.1875 C-0.9225 14.1875 -6.5325 14.1875 -12.3125 14.1875 C-10.85961014 18.7716963 -10.85961014 18.7716963 -9.3125 20.1875 C-7.12610547 20.26008946 -4.93749611 20.27123783 -2.75 20.25 C-1.55246094 20.24097656 -0.35492187 20.23195312 0.87890625 20.22265625 C2.26916016 20.20525391 2.26916016 20.20525391 3.6875 20.1875 C3.3125 22.625 3.3125 22.625 2.6875 25.1875 C-1.2405059 27.15150295 -6.02037038 26.52291968 -10.3125 26.1875 C-13.83164085 24.86782218 -14.93533773 23.70772382 -17.125 20.6875 C-19.24024713 14.45308742 -19.49066938 8.58591624 -16.5625 2.625 C-11.73643184 -2.60324051 -6.4290987 -3.51780872 0 0 Z " fill="#1D2436" transform="translate(569.3125,176.8125)"/>
<path d="M0 0 C2.6875 2.1875 2.6875 2.1875 4.6875 5.1875 C4.9485788 8.21079256 4.77565181 11.14626242 4.6875 14.1875 C-0.9225 14.1875 -6.5325 14.1875 -12.3125 14.1875 C-10.85961014 18.7716963 -10.85961014 18.7716963 -9.3125 20.1875 C-7.12610547 20.26008946 -4.93749611 20.27123783 -2.75 20.25 C-1.55246094 20.24097656 -0.35492188 20.23195312 0.87890625 20.22265625 C2.26916016 20.20525391 2.26916016 20.20525391 3.6875 20.1875 C3.6875 21.8375 3.6875 23.4875 3.6875 25.1875 C-0.99248232 26.48928819 -5.49538026 26.98542781 -10.3125 26.1875 C-14.29236831 23.92556046 -16.85860555 21.54918334 -18.3125 17.1875 C-18.82486616 11.83705335 -18.95991984 7.50546182 -16.5625 2.625 C-11.73643184 -2.60324051 -6.4290987 -3.51780872 0 0 Z " fill="#6927FF" transform="translate(504.3125,229.8125)"/>
<path d="M0 0 C3.84574916 3.21969697 3.84574916 3.21969697 4.6875 6.25 C4.6875 8.89 4.6875 11.53 4.6875 14.25 C-1.2525 14.25 -7.1925 14.25 -13.3125 14.25 C-12.6525 16.23 -11.9925 18.21 -11.3125 20.25 C-6.3625 20.25 -1.4125 20.25 3.6875 20.25 C3.3575 21.9 3.0275 23.55 2.6875 25.25 C-1.25927697 27.22338848 -6.01089523 26.69290148 -10.3125 26.25 C-14.46598153 24.20969329 -16.63868286 22.52836668 -18.3125 18.25 C-18.93910358 13.01858869 -19.46628955 7.2436259 -16.5625 2.625 C-11.68643912 -2.52195315 -6.45456436 -3.40995853 0 0 Z " fill="#6927FF" transform="translate(357.3125,229.75)"/>
<path d="M0 0 C2.6875 2.1875 2.6875 2.1875 4.6875 5.1875 C4.9485788 8.21079256 4.77565181 11.14626242 4.6875 14.1875 C-0.9225 14.1875 -6.5325 14.1875 -12.3125 14.1875 C-10.85961014 18.7716963 -10.85961014 18.7716963 -9.3125 20.1875 C-7.12610547 20.26008946 -4.93749611 20.27123783 -2.75 20.25 C-1.55246094 20.24097656 -0.35492188 20.23195312 0.87890625 20.22265625 C2.26916016 20.20525391 2.26916016 20.20525391 3.6875 20.1875 C3.6875 21.8375 3.6875 23.4875 3.6875 25.1875 C-0.99248232 26.48928819 -5.49538026 26.98542781 -10.3125 26.1875 C-14.29236831 23.92556046 -16.85860555 21.54918334 -18.3125 17.1875 C-18.82486616 11.83705335 -18.95991984 7.50546182 -16.5625 2.625 C-11.73643184 -2.60324051 -6.4290987 -3.51780872 0 0 Z " fill="#6927FF" transform="translate(166.3125,229.8125)"/>
<path d="M0 0 C3.0190434 1.75299294 5.41511201 3.83022401 7 7 C7.13559318 10.00474497 7.04299016 12.99068847 7 16 C1.39 16 -4.22 16 -10 16 C-9.01 17.98 -8.02 19.96 -7 22 C-2.71 22 1.58 22 6 22 C6 23.65 6 25.3 6 27 C0.96195375 28.41622498 -5.08626299 29.48660051 -9.9140625 27.0234375 C-13.51564396 24.13152726 -15.68786013 21.19949719 -16.3359375 16.6328125 C-16.44351948 9.72604959 -15.02771621 6.24398165 -10.25 1.125 C-6.849354 -0.575323 -3.66208054 -0.77318399 0 0 Z " fill="#6925FF" transform="translate(475,228)"/>
<path d="M0 0 C1.65 0 3.3 0 5 0 C5.33 0.66 5.66 1.32 6 2 C6.99 1.34 7.98 0.68 9 0 C11.0859375 -0.37109375 11.0859375 -0.37109375 13.375 -0.4375 C14.50035156 -0.49744141 14.50035156 -0.49744141 15.6484375 -0.55859375 C19.49578994 0.35531223 20.74254319 1.75021104 23 5 C23.60801059 8.95620754 23.47094919 12.82201819 23.3125 16.8125 C23.28994141 17.88693359 23.26738281 18.96136719 23.24414062 20.06835938 C23.18535598 22.7136685 23.10323957 25.35611413 23 28 C21.35 28 19.7 28 18 28 C17.67 20.74 17.34 13.48 17 6 C14.36 6 11.72 6 9 6 C6.56085508 8.43914492 6.71337477 9.21446431 6.5859375 12.5703125 C6.54726563 13.46621094 6.50859375 14.36210937 6.46875 15.28515625 C6.4378125 16.22230469 6.406875 17.15945312 6.375 18.125 C6.33632813 19.06988281 6.29765625 20.01476562 6.2578125 20.98828125 C6.16338654 23.32532375 6.07781606 25.66235501 6 28 C4.02 28 2.04 28 0 28 C0 18.76 0 9.52 0 0 Z " fill="#6C2AFF" transform="translate(275,228)"/>
<path d="M0 0 C1.65 0 3.3 0 5 0 C5 0.99 5 1.98 5 3 C5.474375 2.505 5.94875 2.01 6.4375 1.5 C10.11167123 -0.65073438 13.85971977 -1.06125227 18 0 C20.765625 1.79296875 20.765625 1.79296875 23 5 C23.60843069 8.95611645 23.47094758 12.8220587 23.3125 16.8125 C23.28994141 17.88693359 23.26738281 18.96136719 23.24414062 20.06835938 C23.18535598 22.7136685 23.10323957 25.35611413 23 28 C21.35 28 19.7 28 18 28 C17.97494385 27.36908447 17.9498877 26.73816895 17.92407227 26.08813477 C17.80845863 23.24603175 17.68557684 20.40428917 17.5625 17.5625 C17.52318359 16.56927734 17.48386719 15.57605469 17.44335938 14.55273438 C17.40146484 13.60849609 17.35957031 12.66425781 17.31640625 11.69140625 C17.27974854 10.81685791 17.24309082 9.94230957 17.20532227 9.04125977 C17.21818934 7.0072598 17.21818934 7.0072598 16 6 C12.54178598 5.74996036 12.54178598 5.74996036 9 6 C6.56085508 8.43914492 6.71337477 9.21446431 6.5859375 12.5703125 C6.54726563 13.46621094 6.50859375 14.36210937 6.46875 15.28515625 C6.4378125 16.22230469 6.406875 17.15945312 6.375 18.125 C6.33632813 19.06988281 6.29765625 20.01476562 6.2578125 20.98828125 C6.16338654 23.32532375 6.07781606 25.66235501 6 28 C4.02 28 2.04 28 0 28 C0 18.76 0 9.52 0 0 Z " fill="#252637" transform="translate(493,175)"/>
<path d="M0 0 C2.8100346 1.79363911 4.50940468 3.01880935 6 6 C6.08426094 7.6674606 6.10725143 9.33825187 6.09765625 11.0078125 C6.09443359 11.99394531 6.09121094 12.98007813 6.08789062 13.99609375 C6.07951172 15.02863281 6.07113281 16.06117188 6.0625 17.125 C6.05798828 18.16527344 6.05347656 19.20554688 6.04882812 20.27734375 C6.03701952 22.85161962 6.02055075 25.42578146 6 28 C4.02 28 2.04 28 0 28 C-0.02505615 27.36908447 -0.0501123 26.73816895 -0.07592773 26.08813477 C-0.19154137 23.24603175 -0.31442316 20.40428917 -0.4375 17.5625 C-0.47681641 16.56927734 -0.51613281 15.57605469 -0.55664062 14.55273438 C-0.59853516 13.60849609 -0.64042969 12.66425781 -0.68359375 11.69140625 C-0.72025146 10.81685791 -0.75690918 9.94230957 -0.79467773 9.04125977 C-0.78181066 7.0072598 -0.78181066 7.0072598 -2 6 C-6.09143461 5.55312623 -6.09143461 5.55312623 -9.66333008 7.23754883 C-11.32871423 9.43342247 -11.41989648 10.71291525 -11.51171875 13.44921875 C-11.54716797 14.29677734 -11.58261719 15.14433594 -11.61914062 16.01757812 C-11.64169922 16.89865234 -11.66425781 17.77972656 -11.6875 18.6875 C-11.72166016 19.58017578 -11.75582031 20.47285156 -11.79101562 21.39257812 C-11.87345648 23.59492671 -11.94261551 25.79687938 -12 28 C-13.65 28 -15.3 28 -17 28 C-17 19.09 -17 10.18 -17 1 C-14.66666667 1 -12.33333333 1 -10 1 C-6.79826746 -0.60086627 -3.47422941 -0.49917089 0 0 Z " fill="#222537" transform="translate(95,228)"/>
<path d="M0 0 C2.8100346 1.79363911 4.50940468 3.01880935 6 6 C6.08426094 7.6674606 6.10725143 9.33825187 6.09765625 11.0078125 C6.09443359 11.99394531 6.09121094 12.98007813 6.08789062 13.99609375 C6.07951172 15.02863281 6.07113281 16.06117188 6.0625 17.125 C6.05798828 18.16527344 6.05347656 19.20554688 6.04882812 20.27734375 C6.03701952 22.85161962 6.02055075 25.42578146 6 28 C4.02 28 2.04 28 0 28 C-0.02505615 27.36908447 -0.0501123 26.73816895 -0.07592773 26.08813477 C-0.19154137 23.24603175 -0.31442316 20.40428917 -0.4375 17.5625 C-0.47681641 16.56927734 -0.51613281 15.57605469 -0.55664062 14.55273438 C-0.59853516 13.60849609 -0.64042969 12.66425781 -0.68359375 11.69140625 C-0.72025146 10.81685791 -0.75690918 9.94230957 -0.79467773 9.04125977 C-0.78181066 7.0072598 -0.78181066 7.0072598 -2 6 C-6.09143461 5.55312623 -6.09143461 5.55312623 -9.66333008 7.23754883 C-11.32871423 9.43342247 -11.41989648 10.71291525 -11.51171875 13.44921875 C-11.54716797 14.29677734 -11.58261719 15.14433594 -11.61914062 16.01757812 C-11.64169922 16.89865234 -11.66425781 17.77972656 -11.6875 18.6875 C-11.72166016 19.58017578 -11.75582031 20.47285156 -11.79101562 21.39257812 C-11.87345648 23.59492671 -11.94261551 25.79687938 -12 28 C-13.65 28 -15.3 28 -17 28 C-17 19.09 -17 10.18 -17 1 C-14.66666667 1 -12.33333333 1 -10 1 C-6.79826746 -0.60086627 -3.47422941 -0.49917089 0 0 Z " fill="#222537" transform="translate(540,175)"/>
<path d="M0 0 C2.9375 2.4375 2.9375 2.4375 5 5 C5.33 5.33 5.66 5.66 6 6 C6.08700342 7.63472882 6.10701063 9.27314055 6.09765625 10.91015625 C6.09443359 11.89951172 6.09121094 12.88886719 6.08789062 13.90820312 C6.07951172 14.94912109 6.07113281 15.99003906 6.0625 17.0625 C6.05798828 18.10728516 6.05347656 19.15207031 6.04882812 20.22851562 C6.03699913 22.8190666 6.02051689 25.40950559 6 28 C4.02 28 2.04 28 0 28 C-0.02505615 27.36908447 -0.0501123 26.73816895 -0.07592773 26.08813477 C-0.19154137 23.24603175 -0.31442316 20.40428917 -0.4375 17.5625 C-0.47681641 16.56927734 -0.51613281 15.57605469 -0.55664062 14.55273438 C-0.59853516 13.60849609 -0.64042969 12.66425781 -0.68359375 11.69140625 C-0.72025146 10.81685791 -0.75690918 9.94230957 -0.79467773 9.04125977 C-0.78181066 7.0072598 -0.78181066 7.0072598 -2 6 C-6.09143461 5.55312623 -6.09143461 5.55312623 -9.66333008 7.23754883 C-11.32871423 9.43342247 -11.41989648 10.71291525 -11.51171875 13.44921875 C-11.54716797 14.29677734 -11.58261719 15.14433594 -11.61914062 16.01757812 C-11.64169922 16.89865234 -11.66425781 17.77972656 -11.6875 18.6875 C-11.72166016 19.58017578 -11.75582031 20.47285156 -11.79101562 21.39257812 C-11.87345648 23.59492671 -11.94261551 25.79687938 -12 28 C-13.65 28 -15.3 28 -17 28 C-17 19.09 -17 10.18 -17 1 C-15.68 1 -14.36 1 -13 1 C-13 1.66 -13 2.32 -13 3 C-12.34 2.505 -11.68 2.01 -11 1.5 C-7.216523 -0.3917385 -4.15649697 -0.93206296 0 0 Z " fill="#1E253A" transform="translate(141,175)"/>
<path d="M0 0 C8.91 0 17.82 0 27 0 C27 1.65 27 3.3 27 5 C23.7 5 20.4 5 17 5 C17 15.23 17 25.46 17 36 C15.02 36 13.04 36 11 36 C11 25.77 11 15.54 11 5 C7.37 5 3.74 5 0 5 C0 3.35 0 1.7 0 0 Z " fill="#1F2539" transform="translate(47,167)"/>
<path d="M0 0 C4.04212164 2.47018545 5.67811019 3.93965709 7.0625 8.5 C6.97663991 13.30816501 5.51517785 15.43070865 2.25 18.8125 C-1.03392206 20.54568109 -3.34119985 20.44932633 -7 20 C-9.75329021 18.20437595 -11.52627461 16.94745078 -13 14 C-13.5811138 6.91041162 -13.5811138 6.91041162 -11.125 3.0625 C-7.52217335 -0.43436116 -4.97275774 -0.49727577 0 0 Z " fill="#F8F7FF" transform="translate(277,407)"/>
<path d="M0 0 C2.30859375 1.0234375 2.30859375 1.0234375 4 2 C3.67 3.32 3.34 4.64 3 6 C-0.96 6 -4.92 6 -9 6 C-9 6.99 -9 7.98 -9 9 C-8.15695312 9.40992188 -7.31390625 9.81984375 -6.4453125 10.2421875 C-4.80175781 11.05042969 -4.80175781 11.05042969 -3.125 11.875 C-1.48917969 12.67550781 -1.48917969 12.67550781 0.1796875 13.4921875 C3 15 3 15 5 17 C4.92731513 20.9249829 4.54761019 23.26355871 2.1875 26.4375 C-2.71059331 28.83852613 -7.63549888 28.48335978 -13 28 C-13.66 27.67 -14.32 27.34 -15 27 C-15 25.02 -15 23.04 -15 21 C-14.01 21.33 -13.02 21.66 -12 22 C-10.27204648 22.06802967 -8.54164635 22.08495645 -6.8125 22.0625 C-5.91144531 22.05347656 -5.01039063 22.04445312 -4.08203125 22.03515625 C-3.05142578 22.01775391 -3.05142578 22.01775391 -2 22 C-2.1236512 20.06929384 -2.1236512 20.06929384 -3 18 C-5.23327391 16.49666495 -5.23327391 16.49666495 -7.9375 15.375 C-12.83989501 13.16010499 -12.83989501 13.16010499 -15 11 C-15.52637895 6.93936239 -15.66230899 4.86100169 -13.125 1.5625 C-8.77317951 -0.61341024 -4.78714632 -0.66942209 0 0 Z " fill="#6B28FF" transform="translate(318,228)"/>
<path d="M0 0 C0.33 0.66 0.66 1.32 1 2 C-9.30628485 14.23685695 -9.30628485 14.23685695 -17 16 C-18.66968341 15.68212238 -20.33613871 15.34706557 -22 15 C-23.75080435 14.912936 -25.50440238 14.87375084 -27.25737 14.87301636 C-28.29629395 14.87019653 -29.3352179 14.86737671 -30.40562439 14.86447144 C-31.53464676 14.86649567 -32.66366913 14.8685199 -33.8269043 14.87060547 C-35.02411102 14.86885315 -36.22131775 14.86710083 -37.45480347 14.86529541 C-40.72934434 14.86165314 -44.00384467 14.8624998 -47.27838492 14.8656745 C-50.70608336 14.86820946 -54.13377912 14.86585755 -57.56147766 14.86428833 C-63.31385788 14.8624707 -69.06622525 14.86486307 -74.81860352 14.86962891 C-81.47323467 14.87507851 -88.12783522 14.87330218 -94.78246564 14.8678025 C-100.49635349 14.86326906 -106.21023213 14.86262173 -111.9241212 14.86524117 C-115.3368418 14.86680167 -118.749548 14.86700375 -122.16226768 14.86370468 C-125.96195959 14.86117745 -129.76159186 14.86501944 -133.5612793 14.87060547 C-134.69637436 14.86858124 -135.83146942 14.86655701 -137.0009613 14.86447144 C-138.54665802 14.86870117 -138.54665802 14.86870117 -140.12358093 14.87301636 C-141.02228755 14.87339338 -141.92099417 14.87377041 -142.84693432 14.87415886 C-145.05053524 14.86099104 -145.05053524 14.86099104 -147 16 C-149.125 15.0625 -149.125 15.0625 -151 14 C-151 13.67 -151 13.34 -151 13 C-149.96881341 12.99780016 -149.96881341 12.99780016 -148.91679478 12.99555588 C-132.16468435 12.95845254 -115.41280841 12.89939127 -98.66086674 12.81609726 C-90.55963383 12.77634201 -82.45849757 12.74393173 -74.35717773 12.72900391 C-67.29342265 12.71596909 -60.22988053 12.68895801 -53.1662454 12.64538693 C-49.42844095 12.62281296 -45.69089876 12.60708686 -41.9530201 12.60811615 C-37.77314942 12.60900464 -33.59404896 12.57868092 -29.41430664 12.54589844 C-27.56931831 12.55344398 -27.56931831 12.55344398 -25.6870575 12.56114197 C-17.52228773 12.46221607 -10.84139326 11.41180471 -4.58984375 5.859375 C-4.04457031 5.16328125 -3.49929687 4.4671875 -2.9375 3.75 C-2.36902344 3.04359375 -1.80054688 2.3371875 -1.21484375 1.609375 C-0.81394531 1.07828125 -0.41304687 0.5471875 0 0 Z " fill="#D7D5E5" transform="translate(217,429)"/>
<path d="M0 0 C0.66 0.33 1.32 0.66 2 1 C1.67 2.32 1.34 3.64 1 5 C-2.96 4.67 -6.92 4.34 -11 4 C-10.47647534 8.04965434 -10.47647534 8.04965434 -7.8203125 9.37890625 C-6.93085938 9.76949219 -6.04140625 10.16007813 -5.125 10.5625 C0.7851111 13.1901733 0.7851111 13.1901733 3 16 C3.4375 18.9375 3.4375 18.9375 3 22 C1.1329009 24.30275556 -0.35647741 25.67823871 -3 27 C-4.62268991 27.09611752 -6.24947306 27.12982352 -7.875 27.125 C-8.73867188 27.12757813 -9.60234375 27.13015625 -10.4921875 27.1328125 C-12.80665971 27.01023921 -14.78289116 26.64966445 -17 26 C-17 24.02 -17 22.04 -17 20 C-16.01 20.33 -15.02 20.66 -14 21 C-12.27204648 21.06802967 -10.54164635 21.08495645 -8.8125 21.0625 C-7.91144531 21.05347656 -7.01039063 21.04445312 -6.08203125 21.03515625 C-5.05142578 21.01775391 -5.05142578 21.01775391 -4 21 C-3.67 19.68 -3.34 18.36 -3 17 C-3.59167969 16.84144531 -4.18335938 16.68289062 -4.79296875 16.51953125 C-9.97005755 14.99089655 -13.83485927 13.6422064 -17 9 C-17.125 5.375 -17.125 5.375 -16 2 C-11.47250069 -2.25310541 -5.57697087 -1.85899029 0 0 Z " fill="#222535" transform="translate(415,176)"/>
<path d="M0 0 C2.30859375 1.52734375 2.30859375 1.52734375 4 3 C3.01 4.485 3.01 4.485 2 6 C-0.6015625 6.29296875 -0.6015625 6.29296875 -3.625 6.1875 C-5.12933594 6.14689453 -5.12933594 6.14689453 -6.6640625 6.10546875 C-7.82035156 6.05326172 -7.82035156 6.05326172 -9 6 C-9 6.99 -9 7.98 -9 9 C-8.14535156 9.42152344 -7.29070312 9.84304687 -6.41015625 10.27734375 C-5.30542969 10.82519531 -4.20070312 11.37304688 -3.0625 11.9375 C-1.96035156 12.48277344 -0.85820312 13.02804688 0.27734375 13.58984375 C3 15 3 15 4 16 C4.46482213 22.15889328 4.46482213 22.15889328 2.6875 25.375 C-0.34716351 28.29726856 -3.49026288 28.16055284 -7.5 28.1875 C-8.93859375 28.20876953 -8.93859375 28.20876953 -10.40625 28.23046875 C-13 28 -13 28 -16 26 C-16.1875 23.375 -16.1875 23.375 -16 21 C-15.44828125 21.16371094 -14.8965625 21.32742187 -14.328125 21.49609375 C-11.73385993 22.05760414 -9.40164589 22.09739008 -6.75 22.0625 C-5.41195312 22.04896484 -5.41195312 22.04896484 -4.046875 22.03515625 C-3.37140625 22.02355469 -2.6959375 22.01195312 -2 22 C-2.1236512 20.06929384 -2.1236512 20.06929384 -3 18 C-5.23327391 16.49666495 -5.23327391 16.49666495 -7.9375 15.375 C-12.83989501 13.16010499 -12.83989501 13.16010499 -15 11 C-15.52637895 6.93936239 -15.66230899 4.86100169 -13.125 1.5625 C-8.80996057 -0.59501972 -4.74524545 -0.85645894 0 0 Z " fill="#1E2335" transform="translate(167,175)"/>
<path d="M0 0 C2.30859375 1.0234375 2.30859375 1.0234375 4 2 C3.67 3.32 3.34 4.64 3 6 C-0.96 6 -4.92 6 -9 6 C-9 6.99 -9 7.98 -9 9 C-8.14535156 9.42152344 -7.29070312 9.84304687 -6.41015625 10.27734375 C-5.30542969 10.82519531 -4.20070312 11.37304688 -3.0625 11.9375 C-1.96035156 12.48277344 -0.85820312 13.02804688 0.27734375 13.58984375 C3 15 3 15 4 16 C4.47124825 23.30434783 4.47124825 23.30434783 2.6875 25.9375 C-0.70115995 28.07110071 -3.66800151 28.1353715 -7.5625 28.125 C-8.53316406 28.12757813 -9.50382813 28.13015625 -10.50390625 28.1328125 C-13 28 -13 28 -15 27 C-15 25.35 -15 23.7 -15 22 C-10.71 22 -6.42 22 -2 22 C-2.52701732 17.94490818 -2.52701732 17.94490818 -5.21484375 16.5859375 C-6.56255859 15.98652344 -6.56255859 15.98652344 -7.9375 15.375 C-12.83989501 13.16010499 -12.83989501 13.16010499 -15 11 C-15.52637895 6.93936239 -15.66230899 4.86100169 -13.125 1.5625 C-8.77317951 -0.61341024 -4.78714632 -0.66942209 0 0 Z " fill="#6926FF" transform="translate(225,228)"/>
<path d="M0 0 C2.30859375 1.0234375 2.30859375 1.0234375 4 2 C3.67 3.32 3.34 4.64 3 6 C-0.96 6 -4.92 6 -9 6 C-9 6.99 -9 7.98 -9 9 C-8.14535156 9.42152344 -7.29070313 9.84304687 -6.41015625 10.27734375 C-5.30542969 10.82519531 -4.20070313 11.37304688 -3.0625 11.9375 C-1.96035156 12.48277344 -0.85820313 13.02804688 0.27734375 13.58984375 C3 15 3 15 4 16 C4.46482213 22.15889328 4.46482213 22.15889328 2.6875 25.375 C-0.37971147 28.32861105 -3.51763081 28.13577196 -7.5625 28.125 C-8.53316406 28.12757813 -9.50382813 28.13015625 -10.50390625 28.1328125 C-13 28 -13 28 -15 27 C-15 25.35 -15 23.7 -15 22 C-10.71 22 -6.42 22 -2 22 C-2.52701732 17.94490818 -2.52701732 17.94490818 -5.21484375 16.5859375 C-6.56255859 15.98652344 -6.56255859 15.98652344 -7.9375 15.375 C-12.83989501 13.16010499 -12.83989501 13.16010499 -15 11 C-15.52637895 6.93936239 -15.66230899 4.86100169 -13.125 1.5625 C-8.77317951 -0.61341024 -4.78714632 -0.66942209 0 0 Z " fill="#6926FF" transform="translate(528,228)"/>
<path d="M0 0 C1.2375 0.495 1.2375 0.495 2.5 1 C1.84 2.32 1.18 3.64 0.5 5 C-3.13 5 -6.76 5 -10.5 5 C-10.5 5.99 -10.5 6.98 -10.5 8 C-9.64535156 8.42152344 -8.79070313 8.84304687 -7.91015625 9.27734375 C-6.80542969 9.82519531 -5.70070313 10.37304688 -4.5625 10.9375 C-3.46035156 11.48277344 -2.35820313 12.02804688 -1.22265625 12.58984375 C1.5 14 1.5 14 2.5 15 C2.96482213 21.15889328 2.96482213 21.15889328 1.1875 24.375 C-1.84716351 27.29726856 -4.99026288 27.16055284 -9 27.1875 C-10.43859375 27.20876953 -10.43859375 27.20876953 -11.90625 27.23046875 C-14.5 27 -14.5 27 -17.5 25 C-17.6875 22.375 -17.6875 22.375 -17.5 20 C-16.94828125 20.16371094 -16.3965625 20.32742187 -15.828125 20.49609375 C-13.23385993 21.05760414 -10.90164589 21.09739008 -8.25 21.0625 C-6.91195312 21.04896484 -6.91195312 21.04896484 -5.546875 21.03515625 C-4.87140625 21.02355469 -4.1959375 21.01195312 -3.5 21 C-3.6236512 19.06929384 -3.6236512 19.06929384 -4.5 17 C-6.73327391 15.49666495 -6.73327391 15.49666495 -9.4375 14.375 C-14.33989501 12.16010499 -14.33989501 12.16010499 -16.5 10 C-16.9375 6.625 -16.9375 6.625 -16.5 3 C-11.97884617 -2.51015622 -6.24350477 -1.78385851 0 0 Z " fill="#1E2334" transform="translate(621.5,176)"/>
<path d="M0 0 C6.27 0 12.54 0 19 0 C18.14316471 4.28417644 17.82322726 5.69819594 15.49609375 8.98828125 C15.00302734 9.69404297 14.50996094 10.39980469 14.00195312 11.12695312 C13.48568359 11.84818359 12.96941406 12.56941406 12.4375 13.3125 C11.91736328 14.05306641 11.39722656 14.79363281 10.86132812 15.55664062 C9.58166129 17.37635035 8.29182025 19.18889781 7 21 C10.96 21.33 14.92 21.66 19 22 C19 23.65 19 25.3 19 27 C12.4 27 5.8 27 -1 27 C-1 21.375 -1 21.375 1.625 17.79296875 C2.16640625 17.04208984 2.7078125 16.29121094 3.265625 15.51757812 C3.83796875 14.74865234 4.4103125 13.97972656 5 13.1875 C5.57234375 12.39923828 6.1446875 11.61097656 6.734375 10.79882812 C8.14574149 8.85819919 9.57149906 6.92805112 11 5 C7.37 4.67 3.74 4.34 0 4 C0 2.68 0 1.36 0 0 Z " fill="#1D2435" transform="translate(311,176)"/>
<path d="M0 0 C1.98 0 3.96 0 6 0 C7.98 5.28 9.96 10.56 12 16 C14.10850329 12.83724506 15.28830876 9.86528462 16.625 6.3125 C17.07101562 5.13300781 17.51703125 3.95351562 17.9765625 2.73828125 C18.31429688 1.83464844 18.65203125 0.93101562 19 0 C20.98 0 22.96 0 25 0 C23.27172783 6.3066774 21.16302164 12.44105059 18.875 18.5625 C18.47643799 19.63467773 18.47643799 19.63467773 18.06982422 20.72851562 C16.12600343 25.87399657 16.12600343 25.87399657 15 27 C13.33382885 27.04063832 11.66611905 27.042721 10 27 C0 3.38297872 0 3.38297872 0 0 Z " fill="#202437" transform="translate(343,176)"/>
<path d="M0 0 C0 1.65 0 3.3 0 5 C-2.31 5 -4.62 5 -7 5 C-7.33 6.65 -7.66 8.3 -8 10 C-6.02 10 -4.04 10 -2 10 C-2 11.65 -2 13.3 -2 15 C-4.31 15 -6.62 15 -9 15 C-9 22.59 -9 30.18 -9 38 C-10.65 38 -12.3 38 -14 38 C-14 30.41 -14 22.82 -14 15 C-15.65 15 -17.3 15 -19 15 C-19 14.01 -19 13.02 -19 12 C-17.35 11.67 -15.7 11.34 -14 11 C-14.0825 10.113125 -14.165 9.22625 -14.25 8.3125 C-14 5 -14 5 -12.625 2.125 C-8.6783278 -1.06992512 -4.89172798 -0.42009114 0 0 Z " fill="#212232" transform="translate(191,165)"/>
<path d="M0 0 C0.76441406 0.00644531 1.52882812 0.01289063 2.31640625 0.01953125 C4.4375 0.1875 4.4375 0.1875 7.4375 1.1875 C7.1075 2.8375 6.7775 4.4875 6.4375 6.1875 C5.73882812 6.16429687 5.04015625 6.14109375 4.3203125 6.1171875 C2.95519531 6.09011719 2.95519531 6.09011719 1.5625 6.0625 C0.65757812 6.03929687 -0.24734375 6.01609375 -1.1796875 5.9921875 C-3.75056994 5.94425164 -3.75056994 5.94425164 -5.5625 8.1875 C-5.88241706 11.01620249 -5.88241706 11.01620249 -5.8125 14.1875 C-5.81765625 15.26 -5.8228125 16.3325 -5.828125 17.4375 C-5.84277649 20.33112178 -5.84277649 20.33112178 -3.5625 22.1875 C-0.89300591 22.43065656 -0.89300591 22.43065656 2.0625 22.3125 C3.06539062 22.29445312 4.06828125 22.27640625 5.1015625 22.2578125 C5.87242187 22.23460937 6.64328125 22.21140625 7.4375 22.1875 C7.4375 23.8375 7.4375 25.4875 7.4375 27.1875 C3.09563329 28.6347889 -1.02505585 28.70937856 -5.5625 28.1875 C-9.72791726 25.84445279 -11.08276966 23.62669101 -12.5625 19.1875 C-13.23069923 13.84967596 -13.20290773 9.49118717 -10.8125 4.625 C-7.47997001 1.01475918 -4.89140497 -0.09104138 0 0 Z " fill="#6B2BFF" transform="translate(187.5625,227.8125)"/>
<path d="M0 0 C0.86625 0.00644531 1.7325 0.01289063 2.625 0.01953125 C5 0.1875 5 0.1875 8 1.1875 C7.67 2.8375 7.34 4.4875 7 6.1875 C6.31292969 6.15269531 5.62585938 6.11789063 4.91796875 6.08203125 C3.56638672 6.04142578 3.56638672 6.04142578 2.1875 6 C0.84751953 5.94779297 0.84751953 5.94779297 -0.51953125 5.89453125 C-3.01859123 5.99563641 -3.01859123 5.99563641 -4.80859375 7.421875 C-6.31353966 9.6521555 -6.34009057 10.95381449 -6.25 13.625 C-6.23453125 14.38683594 -6.2190625 15.14867187 -6.203125 15.93359375 C-6.02979802 18.50599856 -6.02979802 18.50599856 -5 22.1875 C-1.04 22.1875 2.92 22.1875 7 22.1875 C7 23.8375 7 25.4875 7 27.1875 C2.92814056 28.54478648 -0.74683089 28.8468499 -5 28.1875 C-8.57522036 26.27035285 -10.69716116 24.09601653 -12 20.1875 C-12.17066284 18.06680439 -12.2662598 15.93954902 -12.3125 13.8125 C-12.34988281 12.69101563 -12.38726562 11.56953125 -12.42578125 10.4140625 C-11.91035378 6.50816258 -10.72966743 4.97126895 -8 2.1875 C-4.74004414 0.01419609 -3.77020034 -0.06171459 0 0 Z " fill="#6926FF" transform="translate(378,227.8125)"/>
<path d="M0 0 C0.66 0 1.32 0 2 0 C2 0.66 2 1.32 2 2 C5.04013112 3.270464 5.04013112 3.270464 8.5 2.4375 C12 2 12 2 15 4 C15.66 3.34 16.32 2.68 17 2 C20.625 1.875 20.625 1.875 24 2 C23.34 3.98 22.68 5.96 22 8 C20.68 8 19.36 8 18 8 C18 8.66 18 9.32 18 10 C19.65 10 21.3 10 23 10 C23.33 11.65 23.66 13.3 24 15 C21.29120665 16.35439668 18.99066732 16.06501451 16 16 C15.34 14.68 14.68 13.36 14 12 C12.60974609 12.01740234 12.60974609 12.01740234 11.19140625 12.03515625 C9.99386719 12.04417969 8.79632813 12.05320312 7.5625 12.0625 C6.36753906 12.07410156 5.17257812 12.08570313 3.94140625 12.09765625 C1 12 1 12 0 11 C-0.25910191 9.52887696 -0.45873776 8.04698431 -0.625 6.5625 C-0.72039062 5.75941406 -0.81578125 4.95632813 -0.9140625 4.12890625 C-1 2 -1 2 0 0 Z " fill="#E6E6EE" transform="translate(337,314)"/>
<path d="M0 0 C3 0.5625 3 0.5625 5.375 1.875 C7.93102252 6.10226802 7.8161173 10.74667271 7 15.5625 C5.49136371 17.69858136 4.60388038 18.41639991 2.0625 19.03125 C-0.05464997 19.06332803 -1.92796389 19.01144116 -4 18.5625 C-6.71942902 15.84307098 -7.20503457 13.2819469 -7.4375 9.5625 C-7.30481838 6.51659144 -6.89166441 5.36249584 -5.375 2.5625 C-3 0.5625 -3 0.5625 0 0 Z " fill="#E6E8F4" transform="translate(203,179.4375)"/>
<path d="M0 0 C2.375 1.4375 2.375 1.4375 4 4 C4.71228128 8.289694 4.34544758 11.94206679 3 16.0625 C0.74298874 18.24897966 0.03676812 18.40729052 -3 18.625 C-6.03676812 18.40729052 -6.74298874 18.24897966 -9 16.0625 C-10.34544758 11.94206679 -10.71228128 8.289694 -10 4 C-7.35478334 -0.1713032 -4.79556761 -0.79926127 0 0 Z " fill="#E6E9F5" transform="translate(385,180)"/>
<path d="M0 0 C1.65 0 3.3 0 5 0 C5 0.99 5 1.98 5 3 C5.70125 2.484375 6.4025 1.96875 7.125 1.4375 C10.60887535 -0.30443767 12.2983569 0.05306805 16 1 C16 2.32 16 3.64 16 5 C14.88625 5.28875 13.7725 5.5775 12.625 5.875 C8.99708908 6.69241329 8.99708908 6.69241329 7 9 C6.63105418 11.03060659 6.63105418 11.03060659 6.5859375 13.3515625 C6.52792969 14.62773437 6.52792969 14.62773437 6.46875 15.9296875 C6.4378125 16.81914062 6.406875 17.70859375 6.375 18.625 C6.31699219 19.97078125 6.31699219 19.97078125 6.2578125 21.34375 C6.16340643 23.5622927 6.07783252 25.78082403 6 28 C4.02 28 2.04 28 0 28 C0 18.76 0 9.52 0 0 Z " fill="#2A2B3A" transform="translate(77,175)"/>
<path d="M0 0 C1.6953125 1.1484375 1.6953125 1.1484375 3 3 C3.3984375 5.8125 3.3984375 5.8125 3.375 9 C3.38273437 10.051875 3.39046875 11.10375 3.3984375 12.1875 C3 15 3 15 1.6953125 16.8515625 C-1.15602423 18.78311319 -3.67892616 18.35582934 -7 18 C-8.6953125 16.8515625 -8.6953125 16.8515625 -10 15 C-10.3984375 12.1875 -10.3984375 12.1875 -10.375 9 C-10.38273437 7.948125 -10.39046875 6.89625 -10.3984375 5.8125 C-10 3 -10 3 -8.6953125 1.1484375 C-5.84397577 -0.78311319 -3.32107384 -0.35582934 0 0 Z " fill="#EAECF7" transform="translate(479,180)"/>
<path d="M0 0 C2.375 1.375 2.375 1.375 4 4 C4.64783641 8.38199456 4.92374323 12.34236261 2.7265625 16.28515625 C1 18 1 18 -0.97265625 18.49609375 C-2.98777281 18.43959515 -4.99642139 18.22261985 -7 18 C-9.29783606 14.55324591 -9.29754883 13.06671888 -9.3125 9 C-9.32925781 7.948125 -9.34601563 6.89625 -9.36328125 5.8125 C-9 3 -9 3 -7.6640625 1.15234375 C-5.02627755 -0.67429137 -3.11520296 -0.44502899 0 0 Z " fill="#EEECFF" transform="translate(260,233)"/>
<path d="M0 0 C3.5 0.5 3.5 0.5 5.19921875 1.65625 C7.06108707 4.29529459 6.86342463 6.30349991 6.8125 9.5 C6.80863281 10.551875 6.80476563 11.60375 6.80078125 12.6875 C6.5 15.5 6.5 15.5 4.5 18.5 C-2.42887029 19.26987448 -2.42887029 19.26987448 -5.5 17.0625 C-7.42429281 12.13149967 -7.15705069 7.39385198 -5.4375 2.4375 C-3.5 0.5 -3.5 0.5 0 0 Z " fill="#E5EAF6" transform="translate(445.5,179.5)"/>
<path d="M0 0 C3.5 0.5 3.5 0.5 5.1953125 2.21875 C6.71032235 4.86774926 6.90274091 6.46699364 6.875 9.5 C6.88273438 10.345625 6.89046875 11.19125 6.8984375 12.0625 C6.41716602 15.00674905 5.58699687 16.38415063 3.5 18.5 C0 19 0 19 -3.5 18.5 C-5.58699687 16.38415063 -6.41716602 15.00674905 -6.8984375 12.0625 C-6.89070313 11.216875 -6.88296875 10.37125 -6.875 9.5 C-6.88273437 8.654375 -6.89046875 7.80875 -6.8984375 6.9375 C-6.14418512 2.32325014 -4.60158513 0.6573693 0 0 Z " fill="#EDEAFF" transform="translate(130.5,232.5)"/>
<path d="M0 0 C1.65 0 3.3 0 5 0 C5.33 0.66 5.66 1.32 6 2 C6.99 1.34 7.98 0.68 9 0 C11.33199388 -0.07905064 13.66832622 -0.08798769 16 0 C16 1.65 16 3.3 16 5 C13.98177083 5.42317708 11.96354167 5.84635417 9.9453125 6.26953125 C7.62953451 6.92308838 7.62953451 6.92308838 6 10 C5.63648496 12.02542148 5.63648496 12.02542148 5.5859375 14.23046875 C5.54726562 15.03291016 5.50859375 15.83535156 5.46875 16.66210938 C5.4378125 17.49548828 5.406875 18.32886719 5.375 19.1875 C5.33632812 20.03248047 5.29765625 20.87746094 5.2578125 21.74804688 C5.16363721 23.83167524 5.08073325 25.91580753 5 28 C3.35 28 1.7 28 0 28 C0 18.76 0 9.52 0 0 Z " fill="#1F2134" transform="translate(221,175)"/>
<path d="M0 0 C2.475 0.495 2.475 0.495 5 1 C7.0745356 1.1490712 7.0745356 1.1490712 9 0 C11.3329866 -0.04022391 13.66706666 -0.04320247 16 0 C16 1.65 16 3.3 16 5 C13.98177083 5.42317708 11.96354167 5.84635417 9.9453125 6.26953125 C7.62953451 6.92308838 7.62953451 6.92308838 6 10 C5.63648496 12.02542148 5.63648496 12.02542148 5.5859375 14.23046875 C5.54726563 15.03291016 5.50859375 15.83535156 5.46875 16.66210938 C5.4378125 17.49548828 5.406875 18.32886719 5.375 19.1875 C5.33632813 20.03248047 5.29765625 20.87746094 5.2578125 21.74804688 C5.16363721 23.83167524 5.08073325 25.91580753 5 28 C3.35 28 1.7 28 0 28 C0 18.76 0 9.52 0 0 Z " fill="#6825FF" transform="translate(441,228)"/>
<path d="M0 0 C1.65 0 3.3 0 5 0 C5 12.54 5 25.08 5 38 C3.35 38 1.7 38 0 38 C0 25.46 0 12.92 0 0 Z " fill="#681CFF" transform="translate(390,218)"/>
<path d="M0 0 C1.98 0 3.96 0 6 0 C6 9.24 6 18.48 6 28 C4.02 28 2.04 28 0 28 C0 18.76 0 9.52 0 0 Z " fill="#7337FF" transform="translate(234,228)"/>
<path d="M0 0 C1.98 0 3.96 0 6 0 C6 9.24 6 18.48 6 28 C4.02 28 2.04 28 0 28 C0 18.76 0 9.52 0 0 Z " fill="#7337FF" transform="translate(199,228)"/>
<path d="M0 0 C1.65 0 3.3 0 5 0 C5 9.24 5 18.48 5 28 C3.35 28 1.7 28 0 28 C0 18.76 0 9.52 0 0 Z " fill="#6723FF" transform="translate(429,228)"/>
<path d="M0 0 C0.804375 0.226875 1.60875 0.45375 2.4375 0.6875 C5.47950046 0.6875 8.43282806 0.13263658 11.4375 -0.3125 C11.4375 0.3475 11.4375 1.0075 11.4375 1.6875 C9.7875 1.6875 8.1375 1.6875 6.4375 1.6875 C6.4375 2.3475 6.4375 3.0075 6.4375 3.6875 C8.0875 4.0175 9.7375 4.3475 11.4375 4.6875 C11.1075 6.3375 10.7775 7.9875 10.4375 9.6875 C5.29085511 9.6875 0.53942873 9.44334129 -4.5625 8.6875 C-5.89091008 3.25309513 -5.89091008 3.25309513 -4.4375 0.75 C-2.5625 -0.3125 -2.5625 -0.3125 0 0 Z " fill="#B3B5C5" transform="translate(159.5625,343.3125)"/>
<path d="M0 0 C2.5 0.375 2.5 0.375 5 1 C8.04200046 1 10.99532806 0.44513658 14 0 C13.67 0.66 13.34 1.32 13 2 C12.01 2.33 11.02 2.66 10 3 C10.825 3.433125 11.65 3.86625 12.5 4.3125 C13.325 4.869375 14.15 5.42625 15 6 C15 6.99 15 7.98 15 9 C12.15161879 10.4241906 9.67212092 10.16995508 6.5 10.1875 C5.3346875 10.20167969 4.169375 10.21585937 2.96875 10.23046875 C0 10 0 10 -2 8 C-2.25 5 -2.25 5 -2 2 C-1.34 1.34 -0.68 0.68 0 0 Z " fill="#B5B6C4" transform="translate(489,316)"/>
<path d="M0 0 C3.04200046 0 5.99532806 -0.55486342 9 -1 C8.67 -0.34 8.34 0.32 8 1 C7.01 1.33 6.02 1.66 5 2 C5.825 2.433125 6.65 2.86625 7.5 3.3125 C8.325 3.869375 9.15 4.42625 10 5 C10 5.99 10 6.98 10 8 C7.28148823 9.35925589 5.00882974 9.06268395 2 9 C0.49942141 9 -1.00129362 9.05006468 -2.5 9.125 C-5 9 -5 9 -7 7 C-7.125 3.375 -7.125 3.375 -7 0 C-4.32147752 -1.33926124 -2.86420842 -0.64444689 0 0 Z " fill="#B8B7C5" transform="translate(110,317)"/>
<path d="M0 0 C2.5 0.8125 2.5 0.8125 5.5 2.8125 C5.5 2.1525 5.5 1.4925 5.5 0.8125 C6.16 0.8125 6.82 0.8125 7.5 0.8125 C7.5 1.8025 7.5 2.7925 7.5 3.8125 C9.15 4.1425 10.8 4.4725 12.5 4.8125 C12.17 6.4625 11.84 8.1125 11.5 9.8125 C8.625 9.9375 8.625 9.9375 5.5 9.8125 C4.84 9.1525 4.18 8.4925 3.5 7.8125 C2.84 8.4725 2.18 9.1325 1.5 9.8125 C-1.625 9.4375 -1.625 9.4375 -4.5 8.8125 C-5.82841008 3.37809513 -5.82841008 3.37809513 -4.375 0.875 C-2.5 -0.1875 -2.5 -0.1875 0 0 Z " fill="#A3A3B2" transform="translate(552.5,289.1875)"/>
<path d="M0 0 C1.32 0 2.64 0 4 0 C4 0.99 4 1.98 4 3 C5.65 3.33 7.3 3.66 9 4 C8.67 5.65 8.34 7.3 8 9 C2.85335511 9 -1.89807127 8.75584129 -7 8 C-8.32841008 2.56559513 -8.32841008 2.56559513 -6.875 0.0625 C-4.25292766 -1.42334099 -2.85423952 -0.76577158 0 0 Z " fill="#BABBC9" transform="translate(96,344)"/>
<path d="M0 0 C4.04212164 2.47018545 5.67811019 3.93965709 7.0625 8.5 C6.97663991 13.30816501 5.51517785 15.43070865 2.25 18.8125 C-1.03392206 20.54568109 -3.34119985 20.44932633 -7 20 C-9.75329021 18.20437595 -11.52627461 16.94745078 -13 14 C-13.5811138 6.91041162 -13.5811138 6.91041162 -11.125 3.0625 C-7.52217335 -0.43436116 -4.97275774 -0.49727577 0 0 Z M-11 6 C-11.72307113 8.8228697 -11.71046028 11.17548716 -11 14 C-9.08817732 16.74612994 -9.08817732 16.74612994 -6 18 C-1.69712377 18.07548906 0.24611283 17.65965128 3.5 14.8125 C5.22940651 12.08067798 5.22940651 12.08067798 5.0625 8.9375 C3.72765196 5.24703777 2.36063527 3.98582993 -1 2 C-5.53953526 1.09209295 -8.0065067 2.5788648 -11 6 Z " fill="#763CFF" transform="translate(277,407)"/>
<path d="M0 0 C6 0 6 0 8.4375 1.5625 C10 4 10 4 9.9375 7.625 C9 11 9 11 6 13 C4.02 13 2.04 13 0 13 C0 8.71 0 4.42 0 0 Z " fill="#A5ABBE" transform="translate(100,286)"/>
<path d="M0 0 C0.86625 0.020625 1.7325 0.04125 2.625 0.0625 C3.615 0.0625 4.605 0.0625 5.625 0.0625 C7.625 0.0625 9.625 0.0625 11.625 0.0625 C11.625 0.7225 11.625 1.3825 11.625 2.0625 C10.305 2.0625 8.985 2.0625 7.625 2.0625 C8.945 3.0525 10.265 4.0425 11.625 5.0625 C11.295 6.3825 10.965 7.7025 10.625 9.0625 C8.47923363 9.08935938 6.33337355 9.10883088 4.1875 9.125 C2.99253906 9.13660156 1.79757813 9.14820313 0.56640625 9.16015625 C-2.375 9.0625 -2.375 9.0625 -3.375 8.0625 C-3.5 4.5625 -3.5 4.5625 -3.375 1.0625 C-2.375 0.0625 -2.375 0.0625 0 0 Z " fill="#6B38FF" transform="translate(152.375,413.9375)"/>
<path d="M0 0 C0.66 0 1.32 0 2 0 C2 0.66 2 1.32 2 2 C5.3 2 8.6 2 12 2 C11.67 2.66 11.34 3.32 11 4 C10.01 4.33 9.02 4.66 8 5 C8.825 5.433125 9.65 5.86625 10.5 6.3125 C11.7375 7.1478125 11.7375 7.1478125 13 8 C13 8.99 13 9.98 13 11 C10.49860398 12.25069801 8.72607309 12.13302467 5.9375 12.125 C4.58978516 12.12886719 4.58978516 12.12886719 3.21484375 12.1328125 C1 12 1 12 0 11 C-0.25910191 9.52887696 -0.45873776 8.04698431 -0.625 6.5625 C-0.72039062 5.75941406 -0.81578125 4.95632813 -0.9140625 4.12890625 C-1 2 -1 2 0 0 Z " fill="#B4B5C4" transform="translate(275,341)"/>
<path d="M0 0 C0.66 0 1.32 0 2 0 C2 0.66 2 1.32 2 2 C5.04966219 3.27228582 5.04966219 3.27228582 8.5625 2.4375 C10.2640625 2.2209375 10.2640625 2.2209375 12 2 C14 4 14 4 14 7 C12.02 7 10.04 7 8 7 C8.66868314 10.11332248 8.66868314 10.11332248 11.0625 11.1875 C11.701875 11.455625 12.34125 11.72375 13 12 C11.02090602 12.02686553 9.04171029 12.04633375 7.0625 12.0625 C5.96035156 12.07410156 4.85820312 12.08570313 3.72265625 12.09765625 C1 12 1 12 0 11 C-0.25910191 9.52887696 -0.45873776 8.04698431 -0.625 6.5625 C-0.72039062 5.75941406 -0.81578125 4.95632813 -0.9140625 4.12890625 C-1 2 -1 2 0 0 Z " fill="#EDEBEF" transform="translate(337,314)"/>
<path d="M0 0 C0.66 0 1.32 0 2 0 C2 0.66 2 1.32 2 2 C4.97 2 7.94 2 11 2 C10.01 2.99 9.02 3.98 8 5 C9.32 5.66 10.64 6.32 12 7 C11.67 8.65 11.34 10.3 11 12 C9.35425434 12.02688151 7.70838587 12.04634123 6.0625 12.0625 C5.14597656 12.07410156 4.22945312 12.08570313 3.28515625 12.09765625 C1 12 1 12 0 11 C-0.25910191 9.52887696 -0.45873776 8.04698431 -0.625 6.5625 C-0.72039062 5.75941406 -0.81578125 4.95632813 -0.9140625 4.12890625 C-1 2 -1 2 0 0 Z " fill="#B4B4C2" transform="translate(199,341)"/>
<path d="M0 0 C2.71872585 0.51785254 4.01729171 0.19538888 6.625 -0.5 C7.615 -0.17 8.605 0.16 9.625 0.5 C8.635 1.16 7.645 1.82 6.625 2.5 C5.88893501 6.06769552 5.88893501 6.06769552 5.625 9.5 C4.16757537 9.58096803 2.70887193 9.63917774 1.25 9.6875 C0.43789062 9.72230469 -0.37421875 9.75710938 -1.2109375 9.79296875 C-1.92507812 9.69628906 -2.63921875 9.59960938 -3.375 9.5 C-5.375 6.5 -5.375 6.5 -5.125 3.375 C-4.75375 1.951875 -4.75375 1.951875 -4.375 0.5 C-2.375 -0.5 -2.375 -0.5 0 0 Z " fill="#ABA8B7" transform="translate(253.375,343.5)"/>
<path d="M0 0 C2.66698331 0.73853737 2.66698331 0.73853737 5.5625 -0.5 C5.5625 2.8 5.5625 6.1 5.5625 9.5 C-1.2734375 9.79296875 -1.2734375 9.79296875 -3.4375 9.5 C-5.4375 6.5 -5.4375 6.5 -5.1875 3.375 C-4.81625 1.951875 -4.81625 1.951875 -4.4375 0.5 C-2.4375 -0.5 -2.4375 -0.5 0 0 Z " fill="#ACADBB" transform="translate(536.4375,316.5)"/>
<path d="M0 0 C0.33 0.66 0.66 1.32 1 2 C1.99 2.33 2.98 2.66 4 3 C3.01 3 2.02 3 1 3 C1.32960216 8.01535052 1.32960216 8.01535052 4 12 C3.21625 11.835 2.4325 11.67 1.625 11.5 C-0.88208039 10.9376293 -0.88208039 10.9376293 -3 11 C-3.33 11.33 -3.66 11.66 -4 12 C-5.99958364 12.04080783 -8.00045254 12.04254356 -10 12 C-10 11.34 -10 10.68 -10 10 C-8.35 10 -6.7 10 -5 10 C-5.825 9.401875 -6.65 8.80375 -7.5 8.1875 C-8.325 7.465625 -9.15 6.74375 -10 6 C-10 5.01 -10 4.02 -10 3 C-3.375 2 -3.375 2 0 2 C0 1.34 0 0.68 0 0 Z " fill="#A7A4AE" transform="translate(466,287)"/>
<path d="M0 0 C0.33 0.66 0.66 1.32 1 2 C1.99 2.33 2.98 2.66 4 3 C3.01 3 2.02 3 1 3 C1.32960216 8.01535052 1.32960216 8.01535052 4 12 C3.21625 11.835 2.4325 11.67 1.625 11.5 C-0.88208039 10.9376293 -0.88208039 10.9376293 -3 11 C-3.33 11.33 -3.66 11.66 -4 12 C-5.99958364 12.04080783 -8.00045254 12.04254356 -10 12 C-10 11.34 -10 10.68 -10 10 C-8.35 10 -6.7 10 -5 10 C-5.825 9.401875 -6.65 8.80375 -7.5 8.1875 C-8.325 7.465625 -9.15 6.74375 -10 6 C-10 5.01 -10 4.02 -10 3 C-3.375 2 -3.375 2 0 2 C0 1.34 0 0.68 0 0 Z " fill="#A7A4AE" transform="translate(430,287)"/>
<path d="M0 0 C0.66 0 1.32 0 2 0 C2 4.62 2 9.24 2 14 C-0.31 14 -2.62 14 -5 14 C-7 12 -7 12 -7.25 9 C-7 6 -7 6 -5 4 C-3.68 4 -2.36 4 -1 4 C-0.67 2.68 -0.34 1.36 0 0 Z " fill="#B0B0BC" transform="translate(517,312)"/>
<path d="M0 0 C2.31 0 4.62 0 7 0 C9 2 9 2 9.25 5 C9 8 9 8 7 10 C5.68 10 4.36 10 3 10 C2.67 11.32 2.34 12.64 2 14 C1.34 14 0.68 14 0 14 C0 9.38 0 4.76 0 0 Z " fill="#ABB0C2" transform="translate(182,316)"/>
<path d="M0 0 C2.31 0 4.62 0 7 0 C9 2 9 2 9.25 5 C9 8 9 8 7 10 C5.68 10 4.36 10 3 10 C2.67 11.32 2.34 12.64 2 14 C1.34 14 0.68 14 0 14 C0 9.38 0 4.76 0 0 Z " fill="#ABB0C2" transform="translate(242,289)"/>
<path d="M0 0 C0.66 0 1.32 0 2 0 C2 4.62 2 9.24 2 14 C-0.31 14 -2.62 14 -5 14 C-7.14915785 10.77626323 -7.38286803 9.73296326 -7 6 C-6.34 5.34 -5.68 4.68 -5 4 C-3.68 4 -2.36 4 -1 4 C-0.67 2.68 -0.34 1.36 0 0 Z " fill="#B3B2BE" transform="translate(150,339)"/>
<path d="M0 0 C0.66 0 1.32 0 2 0 C2 0.66 2 1.32 2 2 C5.3 2 8.6 2 12 2 C11.01 2.99 10.02 3.98 9 5 C8.26958147 8.61023099 8.26958147 8.61023099 8 12 C5.66705225 12.04241723 3.33297433 12.04092937 1 12 C-0.56367978 10.43632022 -0.383179 8.72161607 -0.625 6.5625 C-0.72039062 5.75941406 -0.81578125 4.95632813 -0.9140625 4.12890625 C-1 2 -1 2 0 0 Z " fill="#B8B4C4" transform="translate(313,314)"/>
<path d="M0 0 C0.66 0 1.32 0 2 0 C2 0.66 2 1.32 2 2 C5.3 2 8.6 2 12 2 C11.01 2.99 10.02 3.98 9 5 C8.26958147 8.61023099 8.26958147 8.61023099 8 12 C5.66705225 12.04241723 3.33297433 12.04092937 1 12 C-0.56367978 10.43632022 -0.383179 8.72161607 -0.625 6.5625 C-0.72039062 5.75941406 -0.81578125 4.95632813 -0.9140625 4.12890625 C-1 2 -1 2 0 0 Z " fill="#E6EBFC" transform="translate(276,314)"/>
<path d="M0 0 C0.66 0 1.32 0 2 0 C2.33 1.32 2.66 2.64 3 4 C4.65 4.33 6.3 4.66 8 5 C8.625 7.8125 8.625 7.8125 9 11 C8.01 12.485 8.01 12.485 7 14 C4.69 14 2.38 14 0 14 C0 9.38 0 4.76 0 0 Z " fill="#64678B" transform="translate(49,339)"/>
<path d="M0 0 C0.66 0 1.32 0 2 0 C2 4.62 2 9.24 2 14 C-0.31 14 -2.62 14 -5 14 C-6 13 -6 13 -6.1328125 11.1875 C-6.13023437 10.465625 -6.12765625 9.74375 -6.125 9 C-6.12757813 8.278125 -6.13015625 7.55625 -6.1328125 6.8125 C-6 5 -6 5 -5 4 C-3.33382885 3.95936168 -1.66611905 3.957279 0 4 C0 2.68 0 1.36 0 0 Z " fill="#6D6177" transform="translate(449,312)"/>
<path d="M0 0 C0.66 0 1.32 0 2 0 C2 4.62 2 9.24 2 14 C-0.31 14 -2.62 14 -5 14 C-6 13 -6 13 -6.1328125 11.1875 C-6.13023438 10.465625 -6.12765625 9.74375 -6.125 9 C-6.12757812 8.278125 -6.13015625 7.55625 -6.1328125 6.8125 C-6 5 -6 5 -5 4 C-3.33382885 3.95936168 -1.66611905 3.957279 0 4 C0 2.68 0 1.36 0 0 Z " fill="#6E6177" transform="translate(55,312)"/>
<path d="M0 0 C0.66 0 1.32 0 2 0 C2 4.62 2 9.24 2 14 C-0.31 14 -2.62 14 -5 14 C-6 13 -6 13 -6.1328125 11.1875 C-6.13023437 10.465625 -6.12765625 9.74375 -6.125 9 C-6.12757813 8.278125 -6.13015625 7.55625 -6.1328125 6.8125 C-6 5 -6 5 -5 4 C-3.33382885 3.95936168 -1.66611905 3.957279 0 4 C0 2.68 0 1.36 0 0 Z " fill="#6D6177" transform="translate(519,285)"/>
<path d="M0 0 C0.66 0 1.32 0 2 0 C2 4.62 2 9.24 2 14 C-0.31 14 -2.62 14 -5 14 C-6 13 -6 13 -6.1328125 11.1875 C-6.13023437 10.465625 -6.12765625 9.74375 -6.125 9 C-6.12757813 8.278125 -6.13015625 7.55625 -6.1328125 6.8125 C-6 5 -6 5 -5 4 C-3.33382885 3.95936168 -1.66611905 3.957279 0 4 C0 2.68 0 1.36 0 0 Z " fill="#6D6177" transform="translate(305,285)"/>
<path d="M0 0 C0.33 0.66 0.66 1.32 1 2 C2.98 2 4.96 2 7 2 C7 5.3 7 8.6 7 12 C4.66705225 12.04241723 2.33297433 12.04092937 0 12 C-1.58272601 10.41727399 -1.34735747 8.61965997 -1.5625 6.4375 C-1.64628906 5.61121094 -1.73007813 4.78492188 -1.81640625 3.93359375 C-1.87699219 3.29550781 -1.93757812 2.65742188 -2 2 C-1.34 2 -0.68 2 0 2 C0 1.34 0 0.68 0 0 Z " fill="#C0BECC" transform="translate(194,314)"/>
<path d="M0 0 C1.98 0 3.96 0 6 0 C6 4.62 6 9.24 6 14 C5.34 14 4.68 14 4 14 C4 12.68 4 11.36 4 10 C3.195625 9.855625 2.39125 9.71125 1.5625 9.5625 C-1 9 -1 9 -2 8 C-2.1875 5.0625 -2.1875 5.0625 -2 2 C-1.34 1.34 -0.68 0.68 0 0 Z " fill="#A09CA6" transform="translate(478,289)"/>
<path d="M0 0 C0.99 0.33 1.98 0.66 3 1 C5.3406065 0.72230092 7.67624308 0.39460023 10 0 C9.67 0.66 9.34 1.32 9 2 C8.01 2.33 7.02 2.66 6 3 C6.825 3.433125 7.65 3.86625 8.5 4.3125 C9.7375 5.1478125 9.7375 5.1478125 11 6 C11 6.99 11 7.98 11 9 C7.57067929 10.71466036 3.78283935 10.05404056 0 10 C0 6.7 0 3.4 0 0 Z " fill="#969AAE" transform="translate(221,316)"/>
<path d="M0 0 C2.5 0.25 2.5 0.25 4.5 2.25 C3.92307692 8.82692308 3.92307692 8.82692308 2.5 10.25 C0.0625 10.4375 0.0625 10.4375 -2.5 10.25 C-4.5 8.25 -4.5 8.25 -4.75 5.25 C-4.43608753 1.48305032 -3.83691092 0.38369109 0 0 Z " fill="#65657F" transform="translate(141.5,315.75)"/>
<path d="M0 0 C2.5 0.25 2.5 0.25 4.5 2.25 C3.92307692 8.82692308 3.92307692 8.82692308 2.5 10.25 C0.0625 10.4375 0.0625 10.4375 -2.5 10.25 C-4.5 8.25 -4.5 8.25 -4.75 5.25 C-4.43608753 1.48305032 -3.83691092 0.38369109 0 0 Z " fill="#65657F" transform="translate(156.5,288.75)"/>
<path d="M0 0 C0.33 0 0.66 0 1 0 C1 4.62 1 9.24 1 14 C-0.98 14 -2.96 14 -5 14 C-7 12 -7 12 -7.25 9 C-7 6 -7 6 -5 4 C-3.68 4 -2.36 4 -1 4 C-0.67 2.68 -0.34 1.36 0 0 Z " fill="#5E5363" transform="translate(483,312)"/>
<path d="M0 0 C1.98 0 3.96 0 6 0 C8 2 8 2 8.25 5 C8 8 8 8 6 10 C4.68 10 3.36 10 2 10 C1.34 11.32 0.68 12.64 0 14 C0 9.38 0 4.76 0 0 Z " fill="#55587B" transform="translate(404,316)"/>
<path d="M0 0 C1.98 0 3.96 0 6 0 C8 2 8 2 8.25 5 C8 8 8 8 6 10 C4.68 10 3.36 10 2 10 C1.34 11.32 0.68 12.64 0 14 C0 9.38 0 4.76 0 0 Z " fill="#55587B" transform="translate(127,316)"/>
<path d="M0 0 C3.125 0.375 3.125 0.375 6 1 C6.625 3.8125 6.625 3.8125 7 7 C6.01 8.485 6.01 8.485 5 10 C2.5 10.3125 2.5 10.3125 0 10 C-2 8 -2 8 -2.25 5 C-2 2 -2 2 0 0 Z " fill="#A1A2B5" transform="translate(173,316)"/>
<path d="M0 0 C0.21620175 2.6664882 0.30894168 4.44004321 -1 6.8125 C-4.23988962 8.73618446 -7.2825819 8.18282384 -11 8 C-11.25 5.6875 -11.25 5.6875 -11 3 C-7.85004477 -0.65394807 -4.57703263 -0.26405958 0 0 Z " fill="#E5E0FF" transform="translate(417,243)"/>
<path d="M0 0 C-0.75 5.75 -0.75 5.75 -3 8 C-5.68839385 8.26991906 -8.29141936 8.08737357 -11 8 C-11 6.02 -11 4.04 -11 2 C-7.36576791 -0.32590854 -4.22911669 -0.16265833 0 0 Z " fill="#E1DFEA" transform="translate(112,190)"/>
<path d="M0 0 C1.98 0 3.96 0 6 0 C6.66 0.66 7.32 1.32 8 2 C7.625 5.625 7.625 5.625 7 9 C5.68 9 4.36 9 3 9 C2.67 10.32 2.34 11.64 2 13 C1.34 13 0.68 13 0 13 C0 8.71 0 4.42 0 0 Z " fill="#CCB7FF" transform="translate(382,414)"/>
<path d="M0 0 C1.98 0 3.96 0 6 0 C8 2 8 2 8.25 4.5 C8 7 8 7 6 9 C4.68 9 3.36 9 2 9 C2 10.32 2 11.64 2 13 C1.34 13 0.68 13 0 13 C0 8.71 0 4.42 0 0 Z " fill="#8D5AFF" transform="translate(392,414)"/>
<path d="M0 0 C2.375 0.75 2.375 0.75 3.375 1.75 C3.5625 4.6875 3.5625 4.6875 3.375 7.75 C2.715 8.41 2.055 9.07 1.375 9.75 C-1.75 9.375 -1.75 9.375 -4.625 8.75 C-5.95341008 3.31559513 -5.95341008 3.31559513 -4.5 0.8125 C-2.625 -0.25 -2.625 -0.25 0 0 Z " fill="#A4A2B2" transform="translate(219.625,289.25)"/>
<path d="M0 0 C0.33 0.66 0.66 1.32 1 2 C3.97 2 6.94 2 10 2 C9.01 2.99 8.02 3.98 7 5 C6.2730774 8.10839021 6.2730774 8.10839021 6 11 C4.00045254 11.04254356 1.99958364 11.04080783 0 11 C-1.87666329 9.12333671 -1.63286005 6.42523027 -2.01171875 3.91015625 C-2 2 -2 2 0 0 Z " fill="#CFB6FF" transform="translate(349,412)"/>
<path d="M0 0 C1.17825358 0.90172468 2.34231577 1.82201502 3.5 2.75 C4.1496875 3.26046875 4.799375 3.7709375 5.46875 4.296875 C7 6 7 6 7 10 C5.46875 11.703125 5.46875 11.703125 3.5 13.25 C2.8503125 13.77078125 2.200625 14.2915625 1.53125 14.828125 C0.77328125 15.40820312 0.77328125 15.40820312 0 16 C0 15.01 0 14.02 0 13 C0.99 12.01 1.98 11.02 3 10 C-0.63 9.67 -4.26 9.34 -8 9 C-8 8.34 -8 7.68 -8 7 C-2.555 6.505 -2.555 6.505 3 6 C1.68 4.35 0.36 2.7 -1 1 C-0.67 0.67 -0.34 0.34 0 0 Z " fill="#F4F8FF" transform="translate(184,409)"/>
<path d="M0 0 C1 1 1 1 1.1875 3.9375 C1 7 1 7 -1 9 C-5.55555556 8.44444444 -5.55555556 8.44444444 -7 7 C-7.04092937 4.66702567 -7.04241723 2.33294775 -7 0 C-4.31633121 -1.3418344 -2.84719317 -0.73004953 0 0 Z " fill="#A3A4B4" transform="translate(234,344)"/>
<path d="M0 0 C1 1 1 1 1.1875 3.9375 C1 7 1 7 -1 9 C-5.55555556 8.44444444 -5.55555556 8.44444444 -7 7 C-7.04092937 4.66702567 -7.04241723 2.33294775 -7 0 C-4.31633121 -1.3418344 -2.84719317 -0.73004953 0 0 Z " fill="#A2A4B4" transform="translate(565,317)"/>
<path d="M0 0 C1 1 1 1 1.1875 3.9375 C1 7 1 7 -1 9 C-5.55555556 8.44444444 -5.55555556 8.44444444 -7 7 C-7.04092937 4.66702567 -7.04241723 2.33294775 -7 0 C-4.31633121 -1.3418344 -2.84719317 -0.73004953 0 0 Z " fill="#A3A4B4" transform="translate(272,317)"/>
<path d="M0 0 C1 1 1 1 1.1875 3.9375 C1 7 1 7 -1 9 C-5.55555556 8.44444444 -5.55555556 8.44444444 -7 7 C-7.04092937 4.66702567 -7.04241723 2.33294775 -7 0 C-4.31633121 -1.3418344 -2.84719317 -0.73004953 0 0 Z " fill="#A3A3B4" transform="translate(67,317)"/>
<path d="M0 0 C1.2684375 0.12375 1.2684375 0.12375 2.5625 0.25 C4.5625 3.25 4.5625 3.25 4.25 5.875 C3.5625 8.25 3.5625 8.25 2.5625 9.25 C0.125 9.5 0.125 9.5 -2.4375 9.25 C-4.4375 6.25 -4.4375 6.25 -4.125 3.625 C-3.16976704 0.32510431 -3.16976704 0.32510431 0 0 Z " fill="#D4C9FF" transform="translate(88.4375,413.75)"/>
<path d="M0 0 C1.134375 0.020625 2.26875 0.04125 3.4375 0.0625 C2.7775 2.0425 2.1175 4.0225 1.4375 6.0625 C0.1175 6.0625 -1.2025 6.0625 -2.5625 6.0625 C-2.5625 6.7225 -2.5625 7.3825 -2.5625 8.0625 C-0.9125 8.0625 0.7375 8.0625 2.4375 8.0625 C2.7675 9.7125 3.0975 11.3625 3.4375 13.0625 C1.1275 13.3925 -1.1825 13.7225 -3.5625 14.0625 C-2.6034375 13.6603125 -2.6034375 13.6603125 -1.625 13.25 C0.76881686 12.17582248 0.76881686 12.17582248 1.4375 9.0625 C-0.2125 9.0625 -1.8625 9.0625 -3.5625 9.0625 C-4.44140625 2.91015625 -4.44140625 2.91015625 -4.5625 1.0625 C-3.5625 0.0625 -3.5625 0.0625 0 0 Z " fill="#77788C" transform="translate(357.5625,315.9375)"/>
<path d="M0 0 C1.134375 0.020625 2.26875 0.04125 3.4375 0.0625 C2.7775 2.0425 2.1175 4.0225 1.4375 6.0625 C0.1175 6.0625 -1.2025 6.0625 -2.5625 6.0625 C-2.5625 6.7225 -2.5625 7.3825 -2.5625 8.0625 C-0.9125 8.0625 0.7375 8.0625 2.4375 8.0625 C2.7675 9.7125 3.0975 11.3625 3.4375 13.0625 C1.1275 13.3925 -1.1825 13.7225 -3.5625 14.0625 C-2.6034375 13.6603125 -2.6034375 13.6603125 -1.625 13.25 C0.76881686 12.17582248 0.76881686 12.17582248 1.4375 9.0625 C-0.2125 9.0625 -1.8625 9.0625 -3.5625 9.0625 C-4.44140625 2.91015625 -4.44140625 2.91015625 -4.5625 1.0625 C-3.5625 0.0625 -3.5625 0.0625 0 0 Z " fill="#77788C" transform="translate(267.5625,288.9375)"/>
<path d="M0 0 C0.66 0 1.32 0 2 0 C2 0.66 2 1.32 2 2 C3.32 2.33 4.64 2.66 6 3 C6 5.64 6 8.28 6 11 C4.34385343 11.38218767 2.67542976 11.71395102 1 12 C-0.56367978 10.43632022 -0.383179 8.72161607 -0.625 6.5625 C-0.72039062 5.75941406 -0.81578125 4.95632813 -0.9140625 4.12890625 C-1 2 -1 2 0 0 Z " fill="#E4E8FB" transform="translate(93,287)"/>
<path d="M0 0 C2.00720923 0.28674418 4.0085944 0.61866701 6 1 C6 3.31 6 5.62 6 8 C4.02 8.33 2.04 8.66 0 9 C-2 6 -2 6 -1.6875 3.375 C-1 1 -1 1 0 0 Z " fill="#BB9BFF" transform="translate(410,414)"/>
<path d="M0 0 C4.55555556 0.55555556 4.55555556 0.55555556 6 2 C6.1875 4.4375 6.1875 4.4375 6 7 C5.34 7.66 4.68 8.32 4 9 C-0.55555556 8.44444444 -0.55555556 8.44444444 -2 7 C-2.1875 4.5625 -2.1875 4.5625 -2 2 C-1.34 1.34 -0.68 0.68 0 0 Z " fill="#875AFF" transform="translate(340,414)"/>
<path d="M0 0 C4.55555556 0.55555556 4.55555556 0.55555556 6 2 C6.1875 4.4375 6.1875 4.4375 6 7 C5.34 7.66 4.68 8.32 4 9 C-0.55555556 8.44444444 -0.55555556 8.44444444 -2 7 C-2.1875 4.5625 -2.1875 4.5625 -2 2 C-1.34 1.34 -0.68 0.68 0 0 Z " fill="#875AFF" transform="translate(306,414)"/>
<path d="M0 0 C3.125 0.25 3.125 0.25 5 1.5625 C6.125 3.25 6.125 3.25 6.125 6.25 C2.165 6.25 -1.795 6.25 -5.875 6.25 C-3.49662162 0.30405405 -3.49662162 0.30405405 0 0 Z " fill="#E4E5F2" transform="translate(60.875,232.75)"/>
<path d="M0 0 C3.125 0.25 3.125 0.25 5 1.5625 C6.125 3.25 6.125 3.25 6.125 6.25 C2.165 6.25 -1.795 6.25 -5.875 6.25 C-3.49662162 0.30405405 -3.49662162 0.30405405 0 0 Z " fill="#E3E6F2" transform="translate(294.875,179.75)"/>
<path d="M0 0 C3.0625 0.375 3.0625 0.375 4.9375 2.25 C6.0625 4.375 6.0625 4.375 6.0625 6.375 C2.1025 6.375 -1.8575 6.375 -5.9375 6.375 C-4.48695055 0.5728022 -4.48695055 0.5728022 0 0 Z " fill="#EAE8FF" transform="translate(470.9375,232.625)"/>
<path d="M0 0 C1.175625 0.0825 2.35125 0.165 3.5625 0.25 C5.5625 3.25 5.5625 3.25 5.5625 6.25 C1.9325 6.25 -1.6975 6.25 -5.4375 6.25 C-4.24930812 0.30904059 -4.24930812 0.30904059 0 0 Z " fill="#EAE7FF" transform="translate(350.4375,232.75)"/>
<path d="M0 0 C0.9075 0.12375 1.815 0.2475 2.75 0.375 C1.35823388 4.80334676 -0.68721744 7.40601453 -4.25 10.375 C-5.57 10.375 -6.89 10.375 -8.25 10.375 C-7.46327998 5.26131988 -5.42124977 0.62552882 0 0 Z " fill="#7237FF" transform="translate(355.25,216.625)"/>
<path d="M0 0 C0.9075 0.12375 1.815 0.2475 2.75 0.375 C2.16861767 3.59711891 1.24498087 5.31167741 -1.0625 7.625 C-1.56394531 8.14578125 -2.06539062 8.6665625 -2.58203125 9.203125 C-4.25 10.375 -4.25 10.375 -8.25 10.375 C-7.46327998 5.26131988 -5.42124977 0.62552882 0 0 Z " fill="#7235FF" transform="translate(164.25,216.625)"/>
<path d="M0 0 C2 2 2 2 2 6 C-1.63 6 -5.26 6 -9 6 C-8.67 4.35 -8.34 2.7 -8 1 C-5.23749964 -0.38125018 -3.05268901 -0.19079306 0 0 Z " fill="#E5E8F2" transform="translate(593,180)"/>
<path d="M0 0 C2 2 2 2 2 6 C-1.63 6 -5.26 6 -9 6 C-8.67 4.35 -8.34 2.7 -8 1 C-5.23749964 -0.38125018 -3.05268901 -0.19079306 0 0 Z " fill="#E5E8F2" transform="translate(566,180)"/>
<path d="M0 0 C2.31 0.33 4.62 0.66 7 1 C7 3.97 7 6.94 7 10 C4.69 10 2.38 10 0 10 C-0.33 8.35 -0.66 6.7 -1 5 C0.98 4.67 2.96 4.34 5 4 C4.67 3.34 4.34 2.68 4 2 C2.68 2 1.36 2 0 2 C0 1.34 0 0.68 0 0 Z " fill="#86899D" transform="translate(188,289)"/>
<path d="M0 0 C2.31 0.33 4.62 0.66 7 1 C7 3.97 7 6.94 7 10 C4.69 10 2.38 10 0 10 C-0.33 8.35 -0.66 6.7 -1 5 C0.98 4.67 2.96 4.34 5 4 C4.67 3.34 4.34 2.68 4 2 C2.68 2 1.36 2 0 2 C0 1.34 0 0.68 0 0 Z " fill="#86899D" transform="translate(76,289)"/>
<path d="M0 0 C2 2 2 2 2 6 C-1.63 6 -5.26 6 -9 6 C-8.67 4.35 -8.34 2.7 -8 1 C-5.23749964 -0.38125018 -3.05268901 -0.19079306 0 0 Z " fill="#EBEAFF" transform="translate(501,233)"/>
<path d="M0 0 C2 2 2 2 2 6 C-1.63 6 -5.26 6 -9 6 C-8.67 4.35 -8.34 2.7 -8 1 C-5.23749964 -0.38125018 -3.05268901 -0.19079306 0 0 Z " fill="#ECE9FF" transform="translate(163,233)"/>
<path d="M0 0 C4.17799643 2.08899822 4.92391901 3.05544612 7 7 C7.33 4.69 7.66 2.38 8 0 C8.33 0 8.66 0 9 0 C9 3.96 9 7.92 9 12 C5.26360784 10.75453595 4.81243487 9.36595047 3 6 C2.67 7.98 2.34 9.96 2 12 C1.34 12 0.68 12 0 12 C0 8.04 0 4.08 0 0 Z " fill="#EBE3FF" transform="translate(73,411)"/>
<path d="M0 0 C3.1875 -0.3125 3.1875 -0.3125 6 0 C5.41861767 3.22211891 4.49498087 4.93667741 2.1875 7.25 C1.68605469 7.77078125 1.18460937 8.2915625 0.66796875 8.828125 C-1 10 -1 10 -5 10 C-2.4 3 -2.4 3 0 0 Z " fill="#7130FF" transform="translate(472,217)"/>
<path d="M0 0 C0.66 0 1.32 0 2 0 C2 0.99 2 1.98 2 3 C3.65 3.33 5.3 3.66 7 4 C6.67 5.65 6.34 7.3 6 9 C3.125 9.1875 3.125 9.1875 0 9 C-2 6 -2 6 -2 2 C-1.34 2 -0.68 2 0 2 C0 1.34 0 0.68 0 0 Z " fill="#AAACB8" transform="translate(558,290)"/>
<path d="M0 0 C2.625 0.375 2.625 0.375 5 1 C5.125 6.75 5.125 6.75 4 9 C-0.875 8.125 -0.875 8.125 -2 7 C-2.1875 4.5625 -2.1875 4.5625 -2 2 C-1.34 1.34 -0.68 0.68 0 0 Z " fill="#C7B7FF" transform="translate(420,414)"/>
<path d="M0 0 C1.66611905 -0.042721 3.33382885 -0.04063832 5 0 C6 1 6 1 6.09765625 3.06640625 C6.08605469 3.89011719 6.07445312 4.71382813 6.0625 5.5625 C6.05347656 6.38878906 6.04445313 7.21507812 6.03515625 8.06640625 C6.02355469 8.70449219 6.01195312 9.34257812 6 10 C3.69 10 1.38 10 -1 10 C-1.625 8.125 -1.625 8.125 -2 6 C-1.34 5.34 -0.68 4.68 0 4 C1.32 4 2.64 4 4 4 C4 3.01 4 2.02 4 1 C2.68 1.33 1.36 1.66 0 2 C0 1.34 0 0.68 0 0 Z " fill="#828599" transform="translate(328,316)"/>
<path d="M0 0 C1.66611905 -0.042721 3.33382885 -0.04063832 5 0 C6 1 6 1 6.09765625 3.06640625 C6.08605469 3.89011719 6.07445312 4.71382813 6.0625 5.5625 C6.05347656 6.38878906 6.04445313 7.21507812 6.03515625 8.06640625 C6.02355469 8.70449219 6.01195312 9.34257812 6 10 C3.69 10 1.38 10 -1 10 C-1.625 8.125 -1.625 8.125 -2 6 C-1.34 5.34 -0.68 4.68 0 4 C1.32 4 2.64 4 4 4 C4 3.01 4 2.02 4 1 C2.68 1.33 1.36 1.66 0 2 C0 1.34 0 0.68 0 0 Z " fill="#828699" transform="translate(437,289)"/>
<path d="M0 0 C1.66611905 -0.042721 3.33382885 -0.04063832 5 0 C6 1 6 1 6.09765625 3.06640625 C6.08605469 3.89011719 6.07445312 4.71382813 6.0625 5.5625 C6.05347656 6.38878906 6.04445313 7.21507812 6.03515625 8.06640625 C6.02355469 8.70449219 6.01195312 9.34257812 6 10 C3.69 10 1.38 10 -1 10 C-1.625 8.125 -1.625 8.125 -2 6 C-1.34 5.34 -0.68 4.68 0 4 C1.32 4 2.64 4 4 4 C4 3.01 4 2.02 4 1 C2.68 1.33 1.36 1.66 0 2 C0 1.34 0 0.68 0 0 Z " fill="#828599" transform="translate(375,289)"/>
<path d="M0 0 C1.66611905 -0.042721 3.33382885 -0.04063832 5 0 C6 1 6 1 6.09765625 3.06640625 C6.08605469 3.89011719 6.07445312 4.71382813 6.0625 5.5625 C6.05347656 6.38878906 6.04445313 7.21507812 6.03515625 8.06640625 C6.02355469 8.70449219 6.01195312 9.34257812 6 10 C3.69 10 1.38 10 -1 10 C-1.625 8.125 -1.625 8.125 -2 6 C-1.34 5.34 -0.68 4.68 0 4 C1.32 4 2.64 4 4 4 C4 3.01 4 2.02 4 1 C2.68 1.33 1.36 1.66 0 2 C0 1.34 0 0.68 0 0 Z " fill="#828599" transform="translate(354,289)"/>
<path d="M0 0 C1.66611905 -0.042721 3.33382885 -0.04063832 5 0 C6 1 6 1 6.09765625 3.06640625 C6.08605469 3.89011719 6.07445312 4.71382813 6.0625 5.5625 C6.05347656 6.38878906 6.04445312 7.21507812 6.03515625 8.06640625 C6.02355469 8.70449219 6.01195312 9.34257812 6 10 C3.69 10 1.38 10 -1 10 C-1.625 8.125 -1.625 8.125 -2 6 C-1.34 5.34 -0.68 4.68 0 4 C1.32 4 2.64 4 4 4 C4 3.01 4 2.02 4 1 C2.68 1.33 1.36 1.66 0 2 C0 1.34 0 0.68 0 0 Z " fill="#828599" transform="translate(130,289)"/>
<path d="M0 0 C3.6875 -0.3125 3.6875 -0.3125 7 0 C5.04676526 3.51582254 3.13119496 6.43811321 0 9 C-1.32 9 -2.64 9 -4 9 C-3.34704886 5.47406384 -2.3087867 2.77054404 0 0 Z " fill="#272A3C" transform="translate(563,165)"/>
<path d="M0 0 C0.78375 0.04125 1.5675 0.0825 2.375 0.125 C2.705 1.775 3.035 3.425 3.375 5.125 C1.395 5.125 -0.585 5.125 -2.625 5.125 C-2.625 5.785 -2.625 6.445 -2.625 7.125 C-0.645 7.125 1.335 7.125 3.375 7.125 C3.375 7.785 3.375 8.445 3.375 9.125 C0.5 9.25 0.5 9.25 -2.625 9.125 C-4.625 7.125 -4.625 7.125 -4.875 4.625 C-4.51649553 1.03995533 -3.59522993 0.17120143 0 0 Z " fill="#DBD3FF" transform="translate(117.625,413.875)"/>
<path d="M0 0 C2.31 0 4.62 0 7 0 C7.33 1.65 7.66 3.3 8 5 C8.66 5 9.32 5 10 5 C10.33 3.35 10.66 1.7 11 0 C11.66 0 12.32 0 13 0 C12.44271087 3.34373475 11.64826111 6.03312999 10 9 C9.01 8.67 8.02 8.34 7 8 C6.67 5.69 6.34 3.38 6 1 C5.01 1.33 4.02 1.66 3 2 C2.67 4.31 2.34 6.62 2 9 C1.34 9 0.68 9 0 9 C0 6.03 0 3.06 0 0 Z " fill="#E5D4FF" transform="translate(123,414)"/>
<path d="M0 0 C1.66611905 -0.042721 3.33382885 -0.04063832 5 0 C6 1 6 1 6.09765625 3.06640625 C6.08605469 3.89011719 6.07445313 4.71382813 6.0625 5.5625 C6.05347656 6.38878906 6.04445313 7.21507812 6.03515625 8.06640625 C6.02355469 8.70449219 6.01195313 9.34257812 6 10 C3.69 10 1.38 10 -1 10 C-1.625 8.125 -1.625 8.125 -2 6 C0 4 0 4 2.625 3.875 C3.40875 3.91625 4.1925 3.9575 5 4 C4.67 3.34 4.34 2.68 4 2 C2.68 2 1.36 2 0 2 C0 1.34 0 0.68 0 0 Z " fill="#838298" transform="translate(61,343)"/>
<path d="M0 0 C1.66611905 -0.042721 3.33382885 -0.04063832 5 0 C6 1 6 1 6.09765625 3.06640625 C6.08605469 3.89011719 6.07445312 4.71382813 6.0625 5.5625 C6.05347656 6.38878906 6.04445313 7.21507812 6.03515625 8.06640625 C6.02355469 8.70449219 6.01195312 9.34257812 6 10 C3.69 10 1.38 10 -1 10 C-1.625 8.125 -1.625 8.125 -2 6 C0 4 0 4 2.625 3.875 C3.40875 3.91625 4.1925 3.9575 5 4 C4.67 3.34 4.34 2.68 4 2 C2.68 2 1.36 2 0 2 C0 1.34 0 0.68 0 0 Z " fill="#838398" transform="translate(311,289)"/>
<path d="M0 0 C1.1446875 0.3403125 1.1446875 0.3403125 2.3125 0.6875 C2.3125 2.0075 2.3125 3.3275 2.3125 4.6875 C0.3325 4.6875 -1.6475 4.6875 -3.6875 4.6875 C-2.6975 6.1725 -2.6975 6.1725 -1.6875 7.6875 C-0.3675 7.6875 0.9525 7.6875 2.3125 7.6875 C2.3125 8.3475 2.3125 9.0075 2.3125 9.6875 C0.0025 9.3575 -2.3075 9.0275 -4.6875 8.6875 C-6.01591008 3.25309513 -6.01591008 3.25309513 -4.5625 0.75 C-2.6875 -0.3125 -2.6875 -0.3125 0 0 Z " fill="#7C7C8C" transform="translate(269.6875,343.3125)"/>
<path d="M0 0 C1.1446875 0.3403125 1.1446875 0.3403125 2.3125 0.6875 C2.3125 2.0075 2.3125 3.3275 2.3125 4.6875 C0.3325 4.6875 -1.6475 4.6875 -3.6875 4.6875 C-2.6975 6.1725 -2.6975 6.1725 -1.6875 7.6875 C-0.3675 7.6875 0.9525 7.6875 2.3125 7.6875 C2.3125 8.3475 2.3125 9.0075 2.3125 9.6875 C0.0025 9.3575 -2.3075 9.0275 -4.6875 8.6875 C-6.01591008 3.25309513 -6.01591008 3.25309513 -4.5625 0.75 C-2.6875 -0.3125 -2.6875 -0.3125 0 0 Z " fill="#7C7C8C" transform="translate(159.6875,343.3125)"/>
<path d="M0 0 C1.1446875 0.3403125 1.1446875 0.3403125 2.3125 0.6875 C2.3125 2.0075 2.3125 3.3275 2.3125 4.6875 C0.3325 4.6875 -1.6475 4.6875 -3.6875 4.6875 C-2.6975 6.1725 -2.6975 6.1725 -1.6875 7.6875 C-0.3675 7.6875 0.9525 7.6875 2.3125 7.6875 C2.3125 8.3475 2.3125 9.0075 2.3125 9.6875 C0.0025 9.3575 -2.3075 9.0275 -4.6875 8.6875 C-6.01591008 3.25309513 -6.01591008 3.25309513 -4.5625 0.75 C-2.6875 -0.3125 -2.6875 -0.3125 0 0 Z " fill="#7C7C8C" transform="translate(93.6875,343.3125)"/>
<path d="M0 0 C1.1446875 0.3403125 1.1446875 0.3403125 2.3125 0.6875 C2.3125 2.0075 2.3125 3.3275 2.3125 4.6875 C0.3325 4.6875 -1.6475 4.6875 -3.6875 4.6875 C-2.6975 6.1725 -2.6975 6.1725 -1.6875 7.6875 C-0.3675 7.6875 0.9525 7.6875 2.3125 7.6875 C2.3125 8.3475 2.3125 9.0075 2.3125 9.6875 C0.0025 9.3575 -2.3075 9.0275 -4.6875 8.6875 C-6.01591008 3.25309513 -6.01591008 3.25309513 -4.5625 0.75 C-2.6875 -0.3125 -2.6875 -0.3125 0 0 Z " fill="#7C7C8C" transform="translate(526.6875,316.3125)"/>
<path d="M0 0 C1.66611905 -0.042721 3.33382885 -0.04063832 5 0 C6 1 6 1 6.09765625 3.06640625 C6.08605469 3.89011719 6.07445312 4.71382813 6.0625 5.5625 C6.05347656 6.38878906 6.04445312 7.21507812 6.03515625 8.06640625 C6.01775391 9.02353516 6.01775391 9.02353516 6 10 C4.02 10 2.04 10 0 10 C-0.33 8.35 -0.66 6.7 -1 5 C0.98 4.67 2.96 4.34 5 4 C4.67 3.34 4.34 2.68 4 2 C2.68 2 1.36 2 0 2 C0 1.34 0 0.68 0 0 Z " fill="#85818F" transform="translate(185,343)"/>
<path d="M0 0 C3.125 0.375 3.125 0.375 6 1 C6 2.32 6 3.64 6 5 C4.02 5 2.04 5 0 5 C0.66868314 8.11332248 0.66868314 8.11332248 3.0625 9.1875 C3.701875 9.455625 4.34125 9.72375 5 10 C2.625 10.125 2.625 10.125 0 10 C-2 8 -2 8 -2.25 5 C-2 2 -2 2 0 0 Z " fill="#7C798A" transform="translate(80,343)"/>
<path d="M0 0 C3.125 0.375 3.125 0.375 6 1 C6 2.32 6 3.64 6 5 C4.02 5 2.04 5 0 5 C0.66868314 8.11332248 0.66868314 8.11332248 3.0625 9.1875 C3.701875 9.455625 4.34125 9.72375 5 10 C2.625 10.125 2.625 10.125 0 10 C-2 8 -2 8 -2.25 5 C-2 2 -2 2 0 0 Z " fill="#7B798A" transform="translate(463,316)"/>
<path d="M0 0 C3.125 0.375 3.125 0.375 6 1 C6 2.32 6 3.64 6 5 C4.02 5 2.04 5 0 5 C0.66868314 8.11332248 0.66868314 8.11332248 3.0625 9.1875 C3.701875 9.455625 4.34125 9.72375 5 10 C2.625 10.125 2.625 10.125 0 10 C-2 8 -2 8 -2.25 5 C-2 2 -2 2 0 0 Z " fill="#7B798A" transform="translate(384,316)"/>
<path d="M0 0 C3.125 0.375 3.125 0.375 6 1 C6 2.32 6 3.64 6 5 C4.02 5 2.04 5 0 5 C0.66868314 8.11332248 0.66868314 8.11332248 3.0625 9.1875 C3.701875 9.455625 4.34125 9.72375 5 10 C2.625 10.125 2.625 10.125 0 10 C-2 8 -2 8 -2.25 5 C-2 2 -2 2 0 0 Z " fill="#7B798A" transform="translate(369,316)"/>
<path d="M0 0 C3.125 0.375 3.125 0.375 6 1 C6 2.32 6 3.64 6 5 C4.02 5 2.04 5 0 5 C0.66868314 8.11332248 0.66868314 8.11332248 3.0625 9.1875 C3.701875 9.455625 4.34125 9.72375 5 10 C2.625 10.125 2.625 10.125 0 10 C-2 8 -2 8 -2.25 5 C-2 2 -2 2 0 0 Z " fill="#7B798A" transform="translate(291,316)"/>
<path d="M0 0 C1.66611905 -0.042721 3.33382885 -0.04063832 5 0 C6 1 6 1 6.09765625 3.06640625 C6.08605469 3.89011719 6.07445312 4.71382813 6.0625 5.5625 C6.05347656 6.38878906 6.04445313 7.21507812 6.03515625 8.06640625 C6.01775391 9.02353516 6.01775391 9.02353516 6 10 C4.02 10 2.04 10 0 10 C-0.33 8.35 -0.66 6.7 -1 5 C0.98 4.67 2.96 4.34 5 4 C4.67 3.34 4.34 2.68 4 2 C2.68 2 1.36 2 0 2 C0 1.34 0 0.68 0 0 Z " fill="#85818F" transform="translate(254,289)"/>
<path d="M0 0 C1.66611905 -0.042721 3.33382885 -0.04063832 5 0 C6 1 6 1 6.09765625 3.06640625 C6.08605469 3.89011719 6.07445313 4.71382813 6.0625 5.5625 C6.05347656 6.38878906 6.04445313 7.21507812 6.03515625 8.06640625 C6.01775391 9.02353516 6.01775391 9.02353516 6 10 C4.02 10 2.04 10 0 10 C-0.33 8.35 -0.66 6.7 -1 5 C0.98 4.67 2.96 4.34 5 4 C4.67 3.34 4.34 2.68 4 2 C2.68 2 1.36 2 0 2 C0 1.34 0 0.68 0 0 Z " fill="#85818F" transform="translate(113,289)"/>
<path d="M0 0 C1.2065625 0.0309375 1.2065625 0.0309375 2.4375 0.0625 C2.7675 1.7125 3.0975 3.3625 3.4375 5.0625 C1.7875 5.0625 0.1375 5.0625 -1.5625 5.0625 C-1.2325 5.7225 -0.9025 6.3825 -0.5625 7.0625 C0.7575 7.0625 2.0775 7.0625 3.4375 7.0625 C3.4375 7.7225 3.4375 8.3825 3.4375 9.0625 C1.43795254 9.10504356 -0.56291636 9.10330783 -2.5625 9.0625 C-3.5625 8.0625 -3.5625 8.0625 -3.6875 4.5625 C-3.52762642 0.08603967 -3.52762642 0.08603967 0 0 Z " fill="#EAE3FF" transform="translate(152.5625,413.9375)"/>
<path d="M0 0 C2.625 0.375 2.625 0.375 5 1 C5.33 2.32 5.66 3.64 6 5 C4.02 5 2.04 5 0 5 C0.66868314 8.11332248 0.66868314 8.11332248 3.0625 9.1875 C3.701875 9.455625 4.34125 9.72375 5 10 C2.625 10.125 2.625 10.125 0 10 C-2 8 -2 8 -2.25 5 C-2 2 -2 2 0 0 Z " fill="#76788C" transform="translate(489,316)"/>
<path d="M0 0 C0.33 1.32 0.66 2.64 1 4 C-1.31 4 -3.62 4 -6 4 C-5.01 5.485 -5.01 5.485 -4 7 C-2.68 7 -1.36 7 0 7 C0 7.66 0 8.32 0 9 C-2.375 9.125 -2.375 9.125 -5 9 C-7 7 -7 7 -7.125 3.375 C-7.08375 2.26125 -7.0425 1.1475 -7 0 C-4.3333581 -1.33332095 -2.83319697 -0.67102033 0 0 Z " fill="#727A91" transform="translate(429,317)"/>
<path d="M0 0 C2.625 0.375 2.625 0.375 5 1 C5.33 2.32 5.66 3.64 6 5 C4.02 5 2.04 5 0 5 C0.66868314 8.11332248 0.66868314 8.11332248 3.0625 9.1875 C3.701875 9.455625 4.34125 9.72375 5 10 C2.625 10.125 2.625 10.125 0 10 C-2 8 -2 8 -2.25 5 C-2 2 -2 2 0 0 Z " fill="#77778C" transform="translate(345,316)"/>
<path d="M0 0 C0.33 1.32 0.66 2.64 1 4 C-1.31 4 -3.62 4 -6 4 C-5.01 5.485 -5.01 5.485 -4 7 C-2.68 7 -1.36 7 0 7 C0 7.66 0 8.32 0 9 C-2.375 9.125 -2.375 9.125 -5 9 C-7 7 -7 7 -7.125 3.375 C-7.08375 2.26125 -7.0425 1.1475 -7 0 C-4.3333581 -1.33332095 -2.83319697 -0.67102033 0 0 Z " fill="#727A91" transform="translate(241,317)"/>
<path d="M0 0 C0.33 1.32 0.66 2.64 1 4 C-1.31 4 -3.62 4 -6 4 C-5.01 5.485 -5.01 5.485 -4 7 C-2.68 7 -1.36 7 0 7 C0 7.66 0 8.32 0 9 C-2.375 9.125 -2.375 9.125 -5 9 C-7 7 -7 7 -7.125 3.375 C-7.08375 2.26125 -7.0425 1.1475 -7 0 C-4.3333581 -1.33332095 -2.83319697 -0.67102033 0 0 Z " fill="#737A91" transform="translate(110,317)"/>
<path d="M0 0 C0.33 1.32 0.66 2.64 1 4 C-1.31 4 -3.62 4 -6 4 C-5.01 5.485 -5.01 5.485 -4 7 C-2.68 7 -1.36 7 0 7 C0 7.66 0 8.32 0 9 C-2.375 9.125 -2.375 9.125 -5 9 C-7 7 -7 7 -7.125 3.375 C-7.08375 2.26125 -7.0425 1.1475 -7 0 C-4.3333581 -1.33332095 -2.83319697 -0.67102033 0 0 Z " fill="#737A91" transform="translate(100,317)"/>
<path d="M0 0 C0.33 1.32 0.66 2.64 1 4 C-1.31 4 -3.62 4 -6 4 C-5.01 5.485 -5.01 5.485 -4 7 C-2.68 7 -1.36 7 0 7 C0 7.66 0 8.32 0 9 C-2.375 9.125 -2.375 9.125 -5 9 C-7 7 -7 7 -7.125 3.375 C-7.08375 2.26125 -7.0425 1.1475 -7 0 C-4.3333581 -1.33332095 -2.83319697 -0.67102033 0 0 Z " fill="#727A91" transform="translate(531,290)"/>
<path d="M0 0 C2.625 0.375 2.625 0.375 5 1 C5.33 2.32 5.66 3.64 6 5 C4.02 5 2.04 5 0 5 C0.66868314 8.11332248 0.66868314 8.11332248 3.0625 9.1875 C3.701875 9.455625 4.34125 9.72375 5 10 C2.625 10.125 2.625 10.125 0 10 C-2 8 -2 8 -2.25 5 C-2 2 -2 2 0 0 Z " fill="#76788C" transform="translate(500,289)"/>
<path d="M0 0 C0.33 1.32 0.66 2.64 1 4 C-1.31 4 -3.62 4 -6 4 C-5.01 5.485 -5.01 5.485 -4 7 C-2.68 7 -1.36 7 0 7 C0 7.66 0 8.32 0 9 C-2.375 9.125 -2.375 9.125 -5 9 C-7 7 -7 7 -7.125 3.375 C-7.08375 2.26125 -7.0425 1.1475 -7 0 C-4.3333581 -1.33332095 -2.83319697 -0.67102033 0 0 Z " fill="#727A91" transform="translate(413,290)"/>
<path d="M0 0 C2.625 0.375 2.625 0.375 5 1 C5.33 2.32 5.66 3.64 6 5 C4.02 5 2.04 5 0 5 C0.66868314 8.11332248 0.66868314 8.11332248 3.0625 9.1875 C3.701875 9.455625 4.34125 9.72375 5 10 C2.625 10.125 2.625 10.125 0 10 C-2 8 -2 8 -2.25 5 C-2 2 -2 2 0 0 Z " fill="#77778C" transform="translate(286,289)"/>
<path d="M0 0 C1.67542976 0.28604898 3.34385343 0.61781233 5 1 C5.33 2.32 5.66 3.64 6 5 C4.02 5 2.04 5 0 5 C1.25541557 7.51083114 2.50063488 7.87125446 5 9 C2.625 9.1875 2.625 9.1875 0 9 C-2 6 -2 6 -1.6875 3.375 C-1 1 -1 1 0 0 Z " fill="#9C71FF" transform="translate(437,414)"/>
<path d="M0 0 C0.66 0 1.32 0 2 0 C2.66 1.65 3.32 3.3 4 5 C5.93798263 2.22739701 5.93798263 2.22739701 7 0 C7.66 0 8.32 0 9 0 C8.57316761 1.58624235 8.13303842 3.1689098 7.6875 4.75 C7.44386719 5.63171875 7.20023437 6.5134375 6.94921875 7.421875 C5.97874669 10.05772505 4.78994356 11.85407326 3 14 C2.01 13.67 1.02 13.34 0 13 C0.66 12.67 1.32 12.34 2 12 C2.21278058 7.53160785 1.59138085 4.17737474 0 0 Z " fill="#6A6B88" transform="translate(387,289)"/>
<path d="M0 0 C2.625 0.375 2.625 0.375 5 1 C5 2.32 5 3.64 5 5 C3.35 5 1.7 5 0 5 C0.95865509 7.33075929 0.95865509 7.33075929 4 9 C-0.875 8.125 -0.875 8.125 -2 7 C-2.1875 4.5625 -2.1875 4.5625 -2 2 C-1.34 1.34 -0.68 0.68 0 0 Z " fill="#996DFF" transform="translate(362,414)"/>
<path d="M0 0 C1.65 0.33 3.3 0.66 5 1 C5 3.64 5 6.28 5 9 C3.02 9 1.04 9 -1 9 C-1.33 7.68 -1.66 6.36 -2 5 C-0.02 4.67 1.96 4.34 4 4 C3.04134491 1.66924071 3.04134491 1.66924071 0 0 Z " fill="#9967FF" transform="translate(375,414)"/>
<path d="M0 0 C2 1 2 1 3.125 4.0625 C3.41375 5.031875 3.7025 6.00125 4 7 C4.99 4.69 5.98 2.38 7 0 C7.66 0 8.32 0 9 0 C8.57811541 1.8161982 8.13700835 3.62794073 7.6875 5.4375 C7.44386719 6.44683594 7.20023437 7.45617187 6.94921875 8.49609375 C6.63597656 9.32238281 6.32273437 10.14867187 6 11 C5.01 11.33 4.02 11.66 3 12 C2.49440092 10.56445975 1.9957251 9.1264798 1.5 7.6875 C1.2215625 6.88699219 0.943125 6.08648437 0.65625 5.26171875 C0 3 0 3 0 0 Z " fill="#8D59FF" transform="translate(294,411)"/>
<path d="M0 0 C0.226875 0.556875 0.45375 1.11375 0.6875 1.6875 C2.43538688 4.76711022 4.25869081 6.74603466 7 9 C10.68441504 9.88527109 10.68441504 9.88527109 14 10 C13.67 10.66 13.34 11.32 13 12 C8.86001651 12.32470459 6.66000999 12.4304413 3.125 10.125 C0.4275772 7.4275772 0.01429889 6.71494458 -0.0625 2.875 C-0.041875 1.92625 -0.02125 0.9775 0 0 Z " fill="#712FFF" transform="translate(264,415)"/>
<path d="M0 0 C1.32 0.66 2.64 1.32 4 2 C4 3.65 4 5.3 4 7 C2.125 7.625 2.125 7.625 0 8 C-0.66 7.34 -1.32 6.68 -2 6 C-1.44444444 1.44444444 -1.44444444 1.44444444 0 0 Z " fill="#DCE1EC" transform="translate(479,317)"/>
<path d="M0 0 C2.0625 0.4375 2.0625 0.4375 4 1 C4 2.98 4 4.96 4 7 C2.0625 7.5625 2.0625 7.5625 0 8 C-1 7 -1 7 -1.125 4 C-1 1 -1 1 0 0 Z " fill="#E7E8F0" transform="translate(140,317)"/>
<path d="M0 0 C2.0625 0.4375 2.0625 0.4375 4 1 C4 2.98 4 4.96 4 7 C2.0625 7.5625 2.0625 7.5625 0 8 C-1 7 -1 7 -1.125 4 C-1 1 -1 1 0 0 Z " fill="#E7E8F0" transform="translate(155,290)"/>
<path d="M0 0 C0.66 0 1.32 0 2 0 C2 2.31 2 4.62 2 7 C-0.66420516 7 -2.52260646 6.90837763 -5 6 C-5.33 5.01 -5.66 4.02 -6 3 C-4.02 3 -2.04 3 0 3 C0 2.01 0 1.02 0 0 Z " fill="#DDE9F9" transform="translate(529,318)"/>
<path d="M0 0 C0.99 0.33 1.98 0.66 3 1 C3 2.98 3 4.96 3 7 C1.0625 7.5625 1.0625 7.5625 -1 8 C-2 7 -2 7 -2.0625 3.9375 C-2.041875 2.968125 -2.02125 1.99875 -2 1 C-1.34 0.67 -0.68 0.34 0 0 Z " fill="#DAE6F5" transform="translate(446,317)"/>
<path d="M0 0 C0.99 0.33 1.98 0.66 3 1 C3 2.98 3 4.96 3 7 C1.0625 7.5625 1.0625 7.5625 -1 8 C-2 7 -2 7 -2.0625 3.9375 C-2.041875 2.968125 -2.02125 1.99875 -2 1 C-1.34 0.67 -0.68 0.34 0 0 Z " fill="#DBE4F5" transform="translate(52,317)"/>
<path d="M0 0 C2.7839183 1.39195915 2.97898997 3.15575779 4 6 C4.66 4.02 5.32 2.04 6 0 C6.66 0 7.32 0 8 0 C7.34 2.97 6.68 5.94 6 9 C4.68 9.33 3.36 9.66 2 10 C1.34 6.7 0.68 3.4 0 0 Z " fill="#746F86" transform="translate(538,289)"/>
<path d="M0 0 C0.99 0.33 1.98 0.66 3 1 C3 2.98 3 4.96 3 7 C1.0625 7.5625 1.0625 7.5625 -1 8 C-2 7 -2 7 -2.0625 3.9375 C-2.041875 2.968125 -2.02125 1.99875 -2 1 C-1.34 0.67 -0.68 0.34 0 0 Z " fill="#DAE6F5" transform="translate(516,290)"/>
<path d="M0 0 C0.99 0.33 1.98 0.66 3 1 C3 2.98 3 4.96 3 7 C1.0625 7.5625 1.0625 7.5625 -1 8 C-2 7 -2 7 -2.0625 3.9375 C-2.041875 2.968125 -2.02125 1.99875 -2 1 C-1.34 0.67 -0.68 0.34 0 0 Z " fill="#DAE5F5" transform="translate(302,290)"/>
<path d="M0 0 C1.65 0 3.3 0 5 0 C4.67 0.66 4.34 1.32 4 2 C3.01 1.67 2.02 1.34 1 1 C2.25541557 3.51083114 3.50063488 3.87125446 6 5 C5.67 6.32 5.34 7.64 5 9 C3.02 9 1.04 9 -1 9 C-1 8.34 -1 7.68 -1 7 C0.32 6.67 1.64 6.34 3 6 C1.68 5.34 0.36 4.68 -1 4 C-0.67 2.68 -0.34 1.36 0 0 Z " fill="#E0CFFF" transform="translate(95,414)"/>
<path d="M0 0 C0.99 0.33 1.98 0.66 3 1 C3 2.98 3 4.96 3 7 C2.01 7.33 1.02 7.66 0 8 C-0.66 7.67 -1.32 7.34 -2 7 C-2 5.02 -2 3.04 -2 1 C-1.34 0.67 -0.68 0.34 0 0 Z " fill="#DEE8F5" transform="translate(407,317)"/>
<path d="M0 0 C0.99 0.33 1.98 0.66 3 1 C3 2.98 3 4.96 3 7 C2.01 7.33 1.02 7.66 0 8 C-0.66 7.67 -1.32 7.34 -2 7 C-2 5.02 -2 3.04 -2 1 C-1.34 0.67 -0.68 0.34 0 0 Z " fill="#DEE7F5" transform="translate(130,317)"/>
<path d="M0 0 C1.65 0 3.3 0 5 0 C5 1.98 5 3.96 5 6 C3.0625 6.5625 3.0625 6.5625 1 7 C0 6 0 6 -0.0625 2.9375 C-0.041875 1.968125 -0.02125 0.99875 0 0 Z " fill="#EBE6E9" transform="translate(51,345)"/>
<path d="M0 0 C0 3.3 0 6.6 0 10 C-1.32 9.34 -2.64 8.68 -4 8 C-4 5.69 -4 3.38 -4 1 C-1 0 -1 0 0 0 Z " fill="#E1EFFC" transform="translate(471,289)"/>
<path d="M0 0 C1.98 0 3.96 0 6 0 C5.01 0.66 4.02 1.32 3 2 C2.41651248 4.6556728 2.41651248 4.6556728 2.3125 7.625 C2.21388672 9.12933594 2.21388672 9.12933594 2.11328125 10.6640625 C2.05720703 11.82035156 2.05720703 11.82035156 2 13 C1.34 13 0.68 13 0 13 C0 8.71 0 4.42 0 0 Z " fill="#925FFF" transform="translate(382,414)"/>
<path d="M0 0 C2.475 0.99 2.475 0.99 5 2 C5 3.32 5 4.64 5 6 C3.35 6.66 1.7 7.32 0 8 C0 5.36 0 2.72 0 0 Z " fill="#712AFF" transform="translate(271,413)"/>
<path d="M0 0 C0.33 0 0.66 0 1 0 C1 2.31 1 4.62 1 7 C-1.66420516 7 -3.52260646 6.90837763 -6 6 C-6.33 5.01 -6.66 4.02 -7 3 C-4.69 3 -2.38 3 0 3 C0 2.01 0 1.02 0 0 Z " fill="#E5ECFB" transform="translate(242,318)"/>
<path d="M0 0 C1.65 0.33 3.3 0.66 5 1 C4.67 2.65 4.34 4.3 4 6 C2.35 5.67 0.7 5.34 -1 5 C-0.67 3.35 -0.34 1.7 0 0 Z " fill="#6B29FF" transform="translate(235,219)"/>
<path d="M0 0 C1.65 0.33 3.3 0.66 5 1 C4.67 2.65 4.34 4.3 4 6 C2.35 5.67 0.7 5.34 -1 5 C-0.67 3.35 -0.34 1.7 0 0 Z " fill="#6B29FF" transform="translate(200,219)"/>
<path d="M0 0 C1.98 0 3.96 0 6 0 C6 0.66 6 1.32 6 2 C4.68 2 3.36 2 2 2 C3.32 2.99 4.64 3.98 6 5 C5.67 6.32 5.34 7.64 5 9 C3.35 9 1.7 9 0 9 C0.33 8.34 0.66 7.68 1 7 C1.99 7.33 2.98 7.66 4 8 C3.34 7.4225 2.68 6.845 2 6.25 C0 4 0 4 0 0 Z " fill="#E5D6FF" transform="translate(158,414)"/>
<path d="M0 0 C0.33 0 0.66 0 1 0 C1 3.96 1 7.92 1 12 C0.34 11.01 -0.32 10.02 -1 9 C-3.56282742 8.27034634 -3.56282742 8.27034634 -6 8 C-6 7.34 -6 6.68 -6 6 C-5.38125 5.938125 -4.7625 5.87625 -4.125 5.8125 C-1.72238859 5.171081 -1.72238859 5.171081 -0.75 2.4375 C-0.5025 1.633125 -0.255 0.82875 0 0 Z " fill="#DFEEFE" transform="translate(361,316)"/>
<path d="M0 0 C0.33 0 0.66 0 1 0 C1 3.96 1 7.92 1 12 C0.34 11.01 -0.32 10.02 -1 9 C-3.56282742 8.27034634 -3.56282742 8.27034634 -6 8 C-6 7.34 -6 6.68 -6 6 C-5.38125 5.938125 -4.7625 5.87625 -4.125 5.8125 C-1.72238859 5.171081 -1.72238859 5.171081 -0.75 2.4375 C-0.5025 1.633125 -0.255 0.82875 0 0 Z " fill="#DFEEFE" transform="translate(271,289)"/>
<path d="M0 0 C1.65 0 3.3 0 5 0 C5 0.66 5 1.32 5 2 C3.68 1.67 2.36 1.34 1 1 C1.680625 1.5775 2.36125 2.155 3.0625 2.75 C3.701875 3.4925 4.34125 4.235 5 5 C4.75 7.25 4.75 7.25 4 9 C2.35 9 0.7 9 -1 9 C-0.67 8.34 -0.34 7.68 0 7 C0.99 7.33 1.98 7.66 3 8 C3 7.01 3 6.02 3 5 C1.68 4.67 0.36 4.34 -1 4 C-0.67 2.68 -0.34 1.36 0 0 Z " fill="#E6DBFF" transform="translate(107,414)"/>
<path d="M0 0 C0.66 0 1.32 0 2 0 C2 4.62 2 9.24 2 14 C1.01 13.67 0.02 13.34 -1 13 C-1.07654536 8.48382401 -1.10228696 4.40914783 0 0 Z " fill="#6D677D" transform="translate(150,339)"/>
<path d="M0 0 C0.99 0.33 1.98 0.66 3 1 C1.515 2.485 1.515 2.485 0 4 C0.66 4.33 1.32 4.66 2 5 C1.34 5 0.68 5 0 5 C0 7.97 0 10.94 0 14 C-0.66 14 -1.32 14 -2 14 C-2.33 10.7 -2.66 7.4 -3 4 C-2.34 4 -1.68 4 -1 4 C-0.67 2.68 -0.34 1.36 0 0 Z " fill="#6D5F74" transform="translate(180,339)"/>
<path d="M0 0 C0.66 0 1.32 0 2 0 C2 4.62 2 9.24 2 14 C1.01 13.67 0.02 13.34 -1 13 C-1.07654536 8.48382401 -1.10228696 4.40914783 0 0 Z " fill="#626E96" transform="translate(517,312)"/>
<path d="M0 0 C0.99 0.33 1.98 0.66 3 1 C3.07654536 5.51617599 3.10228696 9.59085217 2 14 C1.34 14 0.68 14 0 14 C0 9.38 0 4.76 0 0 Z " fill="#766972" transform="translate(182,316)"/>
<path d="M0 0 C0.61875 0.639375 1.2375 1.27875 1.875 1.9375 C3.82597612 4.03883584 3.82597612 4.03883584 6 5 C5.67 5.99 5.34 6.98 5 8 C3.35 8.33 1.7 8.66 0 9 C-1.125 3.375 -1.125 3.375 0 0 Z " fill="#EDE7E7" transform="translate(173,290)"/>
<path d="M0 0 C0.99 0.33 1.98 0.66 3 1 C3.07654536 5.51617599 3.10228696 9.59085217 2 14 C1.34 14 0.68 14 0 14 C0 9.38 0 4.76 0 0 Z " fill="#766972" transform="translate(242,289)"/>
<path d="M0 0 C0.33 0.66 0.66 1.32 1 2 C2.65 2 4.3 2 6 2 C5.67 3.32 5.34 4.64 5 6 C3.35 6.33 1.7 6.66 0 7 C-0.93423645 3.98968256 -1.04449911 3.13349732 0 0 Z " fill="#BCB8C1" transform="translate(353,323)"/>
<path d="M0 0 C0.33 0.66 0.66 1.32 1 2 C1.99 2.33 2.98 2.66 4 3 C3.01 3 2.02 3 1 3 C1.32960216 8.01535052 1.32960216 8.01535052 4 12 C2.35 11.67 0.7 11.34 -1 11 C-1.33 8.03 -1.66 5.06 -2 2 C-1.34 2 -0.68 2 0 2 C0 1.34 0 0.68 0 0 Z " fill="#72657A" transform="translate(194,314)"/>
<path d="M0 0 C0.33 0.66 0.66 1.32 1 2 C2.65 2 4.3 2 6 2 C5.67 3.32 5.34 4.64 5 6 C3.35 6.33 1.7 6.66 0 7 C-0.93423645 3.98968256 -1.04449911 3.13349732 0 0 Z " fill="#BCB8C1" transform="translate(263,296)"/>
<path d="M0 0 C0.33 0.66 0.66 1.32 1 2 C1.99 2.33 2.98 2.66 4 3 C3.01 3 2.02 3 1 3 C1.32960216 8.01535052 1.32960216 8.01535052 4 12 C2.35 11.67 0.7 11.34 -1 11 C-1.33 8.03 -1.66 5.06 -2 2 C-1.34 2 -0.68 2 0 2 C0 1.34 0 0.68 0 0 Z " fill="#72657A" transform="translate(123,287)"/>
<path d="M0 0 C0.66 0 1.32 0 2 0 C1.63076923 7.38461538 1.63076923 7.38461538 -1.5625 10.5 C-2.366875 10.995 -3.17125 11.49 -4 12 C-4.66 11.34 -5.32 10.68 -6 10 C-5.195625 9.278125 -4.39125 8.55625 -3.5625 7.8125 C-0.97707928 4.97484311 -0.31957187 3.72833853 0 0 Z " fill="#7A4BFF" transform="translate(282,414)"/>
<path d="M0 0 C0.66 0 1.32 0 2 0 C2 0.66 2 1.32 2 2 C2.66 2.33 3.32 2.66 4 3 C3.34 3 2.68 3 2 3 C2 5.64 2 8.28 2 11 C2.66 11.33 3.32 11.66 4 12 C2.68 11.67 1.36 11.34 0 11 C-0.19491452 9.54263913 -0.38069358 8.08405407 -0.5625 6.625 C-0.66691406 5.81289063 -0.77132813 5.00078125 -0.87890625 4.1640625 C-1 2 -1 2 0 0 Z " fill="#66677A" transform="translate(275,341)"/>
<path d="M0 0 C0.66 0 1.32 0 2 0 C2 0.66 2 1.32 2 2 C2.66 2.33 3.32 2.66 4 3 C3.34 3 2.68 3 2 3 C2 5.64 2 8.28 2 11 C2.66 11.33 3.32 11.66 4 12 C2.68 11.67 1.36 11.34 0 11 C-0.19491452 9.54263913 -0.38069358 8.08405407 -0.5625 6.625 C-0.66691406 5.81289063 -0.77132812 5.00078125 -0.87890625 4.1640625 C-1 2 -1 2 0 0 Z " fill="#626482" transform="translate(199,341)"/>
<path d="M0 0 C0.66 0 1.32 0 2 0 C2 0.66 2 1.32 2 2 C2.66 2.33 3.32 2.66 4 3 C3.34 3 2.68 3 2 3 C2 5.64 2 8.28 2 11 C2.66 11.33 3.32 11.66 4 12 C2.68 11.67 1.36 11.34 0 11 C-0.19491452 9.54263913 -0.38069358 8.08405407 -0.5625 6.625 C-0.66691406 5.81289063 -0.77132813 5.00078125 -0.87890625 4.1640625 C-1 2 -1 2 0 0 Z " fill="#66677A" transform="translate(313,314)"/>
<path d="M0 0 C0.66 0 1.32 0 2 0 C2 0.66 2 1.32 2 2 C2.66 2.33 3.32 2.66 4 3 C3.34 3 2.68 3 2 3 C2 5.64 2 8.28 2 11 C2.66 11.33 3.32 11.66 4 12 C2.68 11.67 1.36 11.34 0 11 C-0.19491452 9.54263913 -0.38069358 8.08405407 -0.5625 6.625 C-0.66691406 5.81289063 -0.77132813 5.00078125 -0.87890625 4.1640625 C-1 2 -1 2 0 0 Z " fill="#626482" transform="translate(337,314)"/>
<path d="M0 0 C0.66 0 1.32 0 2 0 C2 0.66 2 1.32 2 2 C2.66 2.33 3.32 2.66 4 3 C3.34 3 2.68 3 2 3 C2 5.64 2 8.28 2 11 C2.66 11.33 3.32 11.66 4 12 C2.68 11.67 1.36 11.34 0 11 C-0.19491452 9.54263913 -0.38069358 8.08405407 -0.5625 6.625 C-0.66691406 5.81289063 -0.77132813 5.00078125 -0.87890625 4.1640625 C-1 2 -1 2 0 0 Z " fill="#626482" transform="translate(276,314)"/>
<path d="M0 0 C0.66 0 1.32 0 2 0 C2 0.66 2 1.32 2 2 C2.66 2.33 3.32 2.66 4 3 C3.34 3 2.68 3 2 3 C2 5.64 2 8.28 2 11 C2.66 11.33 3.32 11.66 4 12 C2.68 11.67 1.36 11.34 0 11 C-0.19491452 9.54263913 -0.38069358 8.08405407 -0.5625 6.625 C-0.66691406 5.81289063 -0.77132812 5.00078125 -0.87890625 4.1640625 C-1 2 -1 2 0 0 Z " fill="#66667A" transform="translate(93,287)"/>
<path d="M0 0 C0.66 0 1.32 0 2 0 C2 0.66 2 1.32 2 2 C2.66 2.33 3.32 2.66 4 3 C3.34 3 2.68 3 2 3 C2 5.64 2 8.28 2 11 C2.66 11.33 3.32 11.66 4 12 C2.68 11.67 1.36 11.34 0 11 C-0.19491452 9.54263913 -0.38069358 8.08405407 -0.5625 6.625 C-0.66691406 5.81289063 -0.77132813 5.00078125 -0.87890625 4.1640625 C-1 2 -1 2 0 0 Z " fill="#626482" transform="translate(446,287)"/>
<path d="M0 0 C2.0625 0.4375 2.0625 0.4375 4 1 C4 2.65 4 4.3 4 6 C2.35 6 0.7 6 -1 6 C-1.042721 4.33388095 -1.04063832 2.66617115 -1 1 C-0.67 0.67 -0.34 0.34 0 0 Z " fill="#6622FF" transform="translate(430,219)"/>
<path d="M0 0 C0 2.31 0 4.62 0 7 C-3.465 5.02 -3.465 5.02 -7 3 C-6.67 2.34 -6.34 1.68 -6 1 C-3.911361 0.32624548 -2.19636905 0 0 0 Z " fill="#DAE4F7" transform="translate(312,316)"/>
<path d="M0 0 C0.33 1.32 0.66 2.64 1 4 C2.32 4.33 3.64 4.66 5 5 C5 5.99 5 6.98 5 8 C3.35 8.33 1.7 8.66 0 9 C-0.84454356 5.62182575 -1.10844919 3.32534757 0 0 Z " fill="#E6DCDF" transform="translate(69,344)"/>
<path d="M0 0 C1.98 0 3.96 0 6 0 C5.525625 0.350625 5.05125 0.70125 4.5625 1.0625 C2.32126175 3.84163543 2.32882342 6.5144717 2 10 C1.34 10 0.68 10 0 10 C0 6.7 0 3.4 0 0 Z " fill="#7F6E7C" transform="translate(414,316)"/>
<path d="M0 0 C1.98 0 3.96 0 6 0 C5.525625 0.350625 5.05125 0.70125 4.5625 1.0625 C2.32126175 3.84163543 2.32882342 6.5144717 2 10 C1.34 10 0.68 10 0 10 C0 6.7 0 3.4 0 0 Z " fill="#746E7D" transform="translate(282,316)"/>
<path d="M0 0 C1.98 0 3.96 0 6 0 C5.525625 0.350625 5.05125 0.70125 4.5625 1.0625 C2.32126175 3.84163543 2.32882342 6.5144717 2 10 C1.34 10 0.68 10 0 10 C0 6.7 0 3.4 0 0 Z " fill="#746E7D" transform="translate(159,316)"/>
<path d="M0 0 C1.98 0 3.96 0 6 0 C5.525625 0.350625 5.05125 0.70125 4.5625 1.0625 C2.32126175 3.84163543 2.32882342 6.5144717 2 10 C1.34 10 0.68 10 0 10 C0 6.7 0 3.4 0 0 Z " fill="#806E7C" transform="translate(85,289)"/>
<path d="M0 0 C0 3.3 0 6.6 0 10 C-0.99 9.67 -1.98 9.34 -3 9 C-3 6.36 -3 3.72 -3 1 C-1 0 -1 0 0 0 Z " fill="#E2EAFB" transform="translate(451,289)"/>
<path d="M0 0 C0.33 0.66 0.66 1.32 1 2 C1.66 2.33 2.32 2.66 3 3 C2.34 3 1.68 3 1 3 C1 5.31 1 7.62 1 10 C1.66 10.33 2.32 10.66 3 11 C1.68 10.67 0.36 10.34 -1 10 C-1.9765625 3.9453125 -1.9765625 3.9453125 -2 2 C-1.34 1.34 -0.68 0.68 0 0 Z " fill="#8B57FF" transform="translate(349,412)"/>
<path d="M0 0 C0.99 0.33 1.98 0.66 3 1 C3 2.65 3 4.3 3 6 C1.68 6 0.36 6 -1 6 C-1.042721 4.33388095 -1.04063832 2.66617115 -1 1 C-0.67 0.67 -0.34 0.34 0 0 Z " fill="#FAFCFF" transform="translate(395,415)"/>
<path d="M0 0 C0.99 0.33 1.98 0.66 3 1 C3 2.65 3 4.3 3 6 C1.68 6 0.36 6 -1 6 C-1.042721 4.33388095 -1.04063832 2.66617115 -1 1 C-0.67 0.67 -0.34 0.34 0 0 Z " fill="#FDFCFF" transform="translate(341,415)"/>
<path d="M0 0 C0.99 0.33 1.98 0.66 3 1 C3 2.65 3 4.3 3 6 C1.68 6 0.36 6 -1 6 C-1.042721 4.33388095 -1.04063832 2.66617115 -1 1 C-0.67 0.67 -0.34 0.34 0 0 Z " fill="#FDFCFF" transform="translate(307,415)"/>
<path d="M0 0 C1.65 0 3.3 0 5 0 C4.67 0.66 4.34 1.32 4 2 C3.34 2 2.68 2 2 2 C2 4.64 2 7.28 2 10 C1.34 10 0.68 10 0 10 C0 6.7 0 3.4 0 0 Z " fill="#67678C" transform="translate(454,316)"/>
<path d="M0 0 C1.65 0 3.3 0 5 0 C4.67 0.66 4.34 1.32 4 2 C3.34 2 2.68 2 2 2 C2 4.64 2 7.28 2 10 C1.34 10 0.68 10 0 10 C0 6.7 0 3.4 0 0 Z " fill="#67678C" transform="translate(244,316)"/>
<path d="M0 0 C1.2065625 0.0309375 1.2065625 0.0309375 2.4375 0.0625 C2.4375 1.3825 2.4375 2.7025 2.4375 4.0625 C0.7875 4.0625 -0.8625 4.0625 -2.5625 4.0625 C-2.8925 3.0725 -3.2225 2.0825 -3.5625 1.0625 C-2.5625 0.0625 -2.5625 0.0625 0 0 Z " fill="#B68EFF" transform="translate(117.5625,413.9375)"/>
<path d="M0 0 C2.475 0.99 2.475 0.99 5 2 C5 2.99 5 3.98 5 5 C3.35 5.33 1.7 5.66 0 6 C-0.38218767 4.34385343 -0.71395102 2.67542976 -1 1 C-0.67 0.67 -0.34 0.34 0 0 Z " fill="#E5E4EC" transform="translate(579,320)"/>
<path d="M0 0 C2.475 0.99 2.475 0.99 5 2 C5 2.99 5 3.98 5 5 C3.35 5.33 1.7 5.66 0 6 C-0.38218767 4.34385343 -0.71395102 2.67542976 -1 1 C-0.67 0.67 -0.34 0.34 0 0 Z " fill="#E5E4EC" transform="translate(544,320)"/>
<path d="M0 0 C2.475 0.99 2.475 0.99 5 2 C5 2.99 5 3.98 5 5 C3.35 5.33 1.7 5.66 0 6 C-0.38218767 4.34385343 -0.71395102 2.67542976 -1 1 C-0.67 0.67 -0.34 0.34 0 0 Z " fill="#E5E3EC" transform="translate(330,293)"/>
<path d="M0 0 C1.65 0 3.3 0 5 0 C5.33 0.66 5.66 1.32 6 2 C5.67 2.66 5.34 3.32 5 4 C3.35 4 1.7 4 0 4 C0 2.68 0 1.36 0 0 Z " fill="#B38EFF" transform="translate(150,414)"/>
<path d="M0 0 C0.66 0 1.32 0 2 0 C2 3.3 2 6.6 2 10 C1.01 9.67 0.02 9.34 -1 9 C-0.67 6.03 -0.34 3.06 0 0 Z " fill="#726B7F" transform="translate(127,343)"/>
<path d="M0 0 C0.33 0.66 0.66 1.32 1 2 C1.99 2.33 2.98 2.66 4 3 C3.01 3 2.02 3 1 3 C1.32960216 8.01535052 1.32960216 8.01535052 4 12 C2.68 12 1.36 12 0 12 C0 9.03 0 6.06 0 3 C-0.66 2.67 -1.32 2.34 -2 2 C-1.34 2 -0.68 2 0 2 C0 1.34 0 0.68 0 0 Z " fill="#4A507D" transform="translate(466,287)"/>
<path d="M0 0 C0.33 0.66 0.66 1.32 1 2 C1.99 2.33 2.98 2.66 4 3 C3.01 3 2.02 3 1 3 C1.32960216 8.01535052 1.32960216 8.01535052 4 12 C2.68 12 1.36 12 0 12 C0 9.03 0 6.06 0 3 C-0.66 2.67 -1.32 2.34 -2 2 C-1.34 2 -0.68 2 0 2 C0 1.34 0 0.68 0 0 Z " fill="#4A507D" transform="translate(430,287)"/>
<path d="M0 0 C1.32 0 2.64 0 4 0 C4 1.65 4 3.3 4 5 C3.01 5 2.02 5 1 5 C0.67 3.35 0.34 1.7 0 0 Z " fill="#7020FF" transform="translate(86,416)"/>
<path d="M0 0 C0.33 0.66 0.66 1.32 1 2 C1.99 2.33 2.98 2.66 4 3 C3.01 3 2.02 3 1 3 C1.32960216 8.01535052 1.32960216 8.01535052 4 12 C2.68 11.67 1.36 11.34 0 11 C-0.19491452 9.54263913 -0.38069358 8.08405407 -0.5625 6.625 C-0.66691406 5.81289063 -0.77132813 5.00078125 -0.87890625 4.1640625 C-1 2 -1 2 0 0 Z " fill="#43456A" transform="translate(393,314)"/>
<path d="M0 0 C1.98 0.99 3.96 1.98 6 3 C5.67 3.66 5.34 4.32 5 5 C3.02 5 1.04 5 -1 5 C-0.67 3.35 -0.34 1.7 0 0 Z " fill="#6C26FF" transform="translate(93,417)"/>
<path d="M0 0 C0.66 0 1.32 0 2 0 C2.625 2.3125 2.625 2.3125 3 5 C2.34 5.99 1.68 6.98 1 8 C0 7 0 7 -0.0625 3.4375 C-0.041875 2.303125 -0.02125 1.16875 0 0 Z " fill="#F1EAE7" transform="translate(261,291)"/>
</svg>
